<svg xmlns="http://www.w3.org/2000/svg" viewBox="0 0 24 24">

<g transform="matrix(1,0,0,1,0,0)"><g>
    <g>
      <path d="M10,.75h4.38a1.5,1.5,0,0,1,1.06.44l5.87,5.87a1.5,1.5,0,0,1,.44,1.06V21.75a1.5,1.5,0,0,1-1.5,1.5H3.75a1.5,1.5,0,0,1-1.5-1.5V2.25A1.5,1.5,0,0,1,3.75.75H5" style="fill: none;stroke: #000000;stroke-linecap: round;stroke-linejoin: round;stroke-width: 1.5px"></path>
      <path d="M21.75,8.25h-6a1.5,1.5,0,0,1-1.5-1.5v-6" style="fill: none;stroke: #000000;stroke-linecap: round;stroke-linejoin: round;stroke-width: 1.5px"></path>
    </g>
    <g>
      <path d="M5.64,8.59a2.22,2.22,0,0,0,1.86.88c1.14,0,2.06-.69,2.06-1.55S8.64,6.38,7.5,6.38s-2.06-.7-2.06-1.55S6.36,3.28,7.5,3.28a2.22,2.22,0,0,1,1.86.88" style="fill: none;stroke: #000000;stroke-linecap: round;stroke-linejoin: round;stroke-width: 1.5px"></path>
      <line x1="7.5" y1="9.47" x2="7.5" y2="10.5" style="fill: none;stroke: #000000;stroke-linecap: round;stroke-linejoin: round;stroke-width: 1.5px"></line>
      <line x1="7.5" y1="2.25" x2="7.5" y2="3.28" style="fill: none;stroke: #000000;stroke-linecap: round;stroke-linejoin: round;stroke-width: 1.5px"></line>
    </g>
    <rect x="5.25" y="13.25" width="13.5" height="7" rx="0.5" style="fill: none;stroke: #000000;stroke-linecap: round;stroke-linejoin: round;stroke-width: 1.5px"></rect>
    <line x1="5.25" y1="16.75" x2="18.75" y2="16.75" style="fill: none;stroke: #000000;stroke-linecap: round;stroke-linejoin: round;stroke-width: 1.5px"></line>
    <line x1="9.75" y1="13.25" x2="9.75" y2="20.25" style="fill: none;stroke: #000000;stroke-linecap: round;stroke-linejoin: round;stroke-width: 1.5px"></line>
    <line x1="14.25" y1="13.25" x2="14.25" y2="20.25" style="fill: none;stroke: #000000;stroke-linecap: round;stroke-linejoin: round;stroke-width: 1.5px"></line>
  </g></g></svg>
