<svg xmlns="http://www.w3.org/2000/svg" fill="none" viewBox="0 0 48 48">











<g transform="matrix(2,0,0,2,0,0)"><path stroke="#000000" stroke-linecap="round" stroke-linejoin="round" stroke-width="1.5" d="M9.55399 6.75C9.55399 5.1587 10.1861 3.63258 11.3113 2.50736C12.4366 1.38214 13.9627 0.75 15.554 0.75C17.1453 0.75 18.6714 1.38214 19.7966 2.50736C20.9218 3.63258 21.554 5.1587 21.554 6.75V23.25"></path><path stroke="#000000" stroke-linecap="round" stroke-linejoin="round" stroke-width="1.5" d="M5.05399 11.25C5.05399 10.0565 5.52809 8.91193 6.372 8.06802C7.21592 7.22411 8.36051 6.75 9.55399 6.75C10.7475 6.75 11.8921 7.22411 12.736 8.06802C13.5799 8.91193 14.054 10.0565 14.054 11.25H5.05399Z"></path><path stroke="#000000" stroke-width="1.5" d="M5.42899 15.7504C5.22188 15.7504 5.05399 15.5825 5.05399 15.3754C5.05399 15.1683 5.22188 15.0004 5.42899 15.0004"></path><path stroke="#000000" stroke-width="1.5" d="M5.42899 15.7504C5.63609 15.7504 5.80399 15.5825 5.80399 15.3754C5.80399 15.1683 5.63609 15.0004 5.42899 15.0004"></path><path stroke="#000000" stroke-width="1.5" d="M9.55399 15.7504C9.34688 15.7504 9.17899 15.5825 9.17899 15.3754C9.17899 15.1683 9.34688 15.0004 9.55399 15.0004"></path><path stroke="#000000" stroke-width="1.5" d="M9.55399 15.7504C9.76109 15.7504 9.92899 15.5825 9.92899 15.3754C9.92899 15.1683 9.76109 15.0004 9.55399 15.0004"></path><path stroke="#000000" stroke-width="1.5" d="M9.55399 21.75C9.34688 21.75 9.17899 21.5821 9.17899 21.375C9.17899 21.1679 9.34688 21 9.55399 21"></path><path stroke="#000000" stroke-width="1.5" d="M9.55399 21.75C9.76109 21.75 9.92899 21.5821 9.92899 21.375C9.92899 21.1679 9.76109 21 9.55399 21"></path><g>
    <path stroke="#000000" stroke-width="1.5" d="M3.57144 21.4557C3.36433 21.4557 3.19644 21.2878 3.19644 21.0807C3.19644 20.8736 3.36433 20.7057 3.57144 20.7057"></path>
    <path stroke="#000000" stroke-width="1.5" d="M3.57144 21.4557C3.77855 21.4557 3.94644 21.2878 3.94644 21.0807C3.94644 20.8736 3.77855 20.7057 3.57144 20.7057"></path>
  </g><g>
    <path stroke="#000000" stroke-width="1.5" d="M15.537 21.4557C15.3299 21.4557 15.162 21.2878 15.162 21.0807C15.162 20.8736 15.3299 20.7057 15.537 20.7057"></path>
    <path stroke="#000000" stroke-width="1.5" d="M15.537 21.4557C15.7441 21.4557 15.912 21.2878 15.912 21.0807C15.912 20.8736 15.7441 20.7057 15.537 20.7057"></path>
  </g><g>
    <path stroke="#000000" stroke-width="1.5" d="M13.679 15.7504C13.4719 15.7504 13.304 15.5825 13.304 15.3754C13.304 15.1683 13.4719 15.0004 13.679 15.0004"></path>
    <path stroke="#000000" stroke-width="1.5" d="M13.679 15.7504C13.8861 15.7504 14.054 15.5825 14.054 15.3754C14.054 15.1683 13.8861 15.0004 13.679 15.0004"></path>
  </g></g></svg>
