<svg width="16" height="16" viewBox="0 0 16 16" fill="none" xmlns="http://www.w3.org/2000/svg">
<g clip-path="url(#clip0_1145_6118)">
<path d="M6.59375 5.6543V10.3418" stroke="#454F5B" stroke-linecap="round" stroke-linejoin="round"/>
<path d="M9.75391 5.6543V10.3418" stroke="#454F5B" stroke-linecap="round" stroke-linejoin="round"/>
<path d="M0.96875 7.99805C0.96875 8.9214 1.15062 9.83572 1.50397 10.6888C1.85733 11.5419 2.37524 12.317 3.02816 12.9699C3.68107 13.6228 4.45619 14.1407 5.30926 14.4941C6.16233 14.8474 7.07664 15.0293 8 15.0293C8.92336 15.0293 9.83767 14.8474 10.6907 14.4941C11.5438 14.1407 12.3189 13.6228 12.9718 12.9699C13.6248 12.317 14.1427 11.5419 14.496 10.6888C14.8494 9.83572 15.0313 8.9214 15.0313 7.99805C15.0313 7.07469 14.8494 6.16038 14.496 5.3073C14.1427 4.45423 13.6248 3.67911 12.9718 3.0262C12.3189 2.37329 11.5438 1.85537 10.6907 1.50202C9.83767 1.14867 8.92336 0.966797 8 0.966797C7.07664 0.966797 6.16233 1.14867 5.30926 1.50202C4.45619 1.85537 3.68107 2.37329 3.02816 3.0262C2.37524 3.67911 1.85733 4.45423 1.50397 5.3073C1.15062 6.16038 0.96875 7.07469 0.96875 7.99805Z" stroke="#454F5B" stroke-linecap="round" stroke-linejoin="round"/>
</g>
<defs>
<clipPath id="clip0_1145_6118">
<rect width="16" height="16" fill="white"/>
</clipPath>
</defs>
</svg>
