<svg xmlns="http://www.w3.org/2000/svg" fill="none" viewBox="0 0 24 24" stroke-width="1.5" height="24" width="24"><path stroke="#000000" stroke-linecap="round" stroke-linejoin="round" d="M20.25 3.75V23.25"></path><path stroke="#000000" stroke-linecap="round" stroke-linejoin="round" d="M3.75 3.75H20.25"></path><path stroke="#000000" stroke-linecap="round" stroke-linejoin="round" d="M3.75 23.25V3.75"></path><path stroke="#000000" stroke-linecap="round" stroke-linejoin="round" d="M20.25 23.25H3.75"></path><path stroke="#000000" stroke-linecap="round" stroke-linejoin="round" d="M20.25 3.75H3.75L5.25 0.75H18.75L20.25 3.75Z"></path><path stroke="#000000" stroke-linecap="round" stroke-linejoin="round" d="M0.75 23.25H23.25"></path><path stroke="#000000" stroke-linecap="round" stroke-linejoin="round" d="M14.25 21C14.25 20.4033 14.0129 19.831 13.591 19.409C13.169 18.9871 12.5967 18.75 12 18.75C11.4033 18.75 10.831 18.9871 10.409 19.409C9.98705 19.831 9.75 20.4033 9.75 21V23.25H14.25V21Z"></path><path stroke="#000000" d="M7.5 7.125C7.29289 7.125 7.125 6.95711 7.125 6.75C7.125 6.54289 7.29289 6.375 7.5 6.375"></path><path stroke="#000000" d="M7.5 7.125C7.70711 7.125 7.875 6.95711 7.875 6.75C7.875 6.54289 7.70711 6.375 7.5 6.375"></path><path stroke="#000000" d="M12 7.125C11.7929 7.125 11.625 6.95711 11.625 6.75C11.625 6.54289 11.7929 6.375 12 6.375"></path><path stroke="#000000" d="M12 7.125C12.2071 7.125 12.375 6.95711 12.375 6.75C12.375 6.54289 12.2071 6.375 12 6.375"></path><path stroke="#000000" d="M16.5 7.125C16.2929 7.125 16.125 6.95711 16.125 6.75C16.125 6.54289 16.2929 6.375 16.5 6.375"></path><path stroke="#000000" d="M16.5 7.125C16.7071 7.125 16.875 6.95711 16.875 6.75C16.875 6.54289 16.7071 6.375 16.5 6.375"></path><path stroke="#000000" d="M7.5 11.625C7.29289 11.625 7.125 11.4571 7.125 11.25C7.125 11.0429 7.29289 10.875 7.5 10.875"></path><path stroke="#000000" d="M7.5 11.625C7.70711 11.625 7.875 11.4571 7.875 11.25C7.875 11.0429 7.70711 10.875 7.5 10.875"></path><path stroke="#000000" d="M12 11.625C11.7929 11.625 11.625 11.4571 11.625 11.25C11.625 11.0429 11.7929 10.875 12 10.875"></path><path stroke="#000000" d="M12 11.625C12.2071 11.625 12.375 11.4571 12.375 11.25C12.375 11.0429 12.2071 10.875 12 10.875"></path><g><path stroke="#000000" d="M16.5 11.625C16.2929 11.625 16.125 11.4571 16.125 11.25C16.125 11.0429 16.2929 10.875 16.5 10.875"></path><path stroke="#000000" d="M16.5 11.625C16.7071 11.625 16.875 11.4571 16.875 11.25C16.875 11.0429 16.7071 10.875 16.5 10.875"></path></g><g><path stroke="#000000" d="M7.5 16.125C7.29289 16.125 7.125 15.9571 7.125 15.75C7.125 15.5429 7.29289 15.375 7.5 15.375"></path><path stroke="#000000" d="M7.5 16.125C7.70711 16.125 7.875 15.9571 7.875 15.75C7.875 15.5429 7.70711 15.375 7.5 15.375"></path></g><g><path stroke="#000000" d="M12 16.125C11.7929 16.125 11.625 15.9571 11.625 15.75C11.625 15.5429 11.7929 15.375 12 15.375"></path><path stroke="#000000" d="M12 16.125C12.2071 16.125 12.375 15.9571 12.375 15.75C12.375 15.5429 12.2071 15.375 12 15.375"></path></g><g><path stroke="#000000" d="M16.5 16.125C16.2929 16.125 16.125 15.9571 16.125 15.75C16.125 15.5429 16.2929 15.375 16.5 15.375"></path><path stroke="#000000" d="M16.5 16.125C16.7071 16.125 16.875 15.9571 16.875 15.75C16.875 15.5429 16.7071 15.375 16.5 15.375"></path></g></svg>
