<svg viewBox="-4 -4 128 128" xmlns="http://www.w3.org/2000/svg" height="128" width="128"><path d="M56.25 86.25a30 30 0 1 0 60 0 30 30 0 1 0 -60 0Z" fill="none" stroke="#000000" stroke-linecap="round" stroke-linejoin="round" stroke-width="8"></path><path d="M97.5 75 75 97.5" fill="none" stroke="#000000" stroke-linecap="round" stroke-linejoin="round" stroke-width="8"></path><path d="m75 75 22.5 22.5" fill="none" stroke="#000000" stroke-linecap="round" stroke-linejoin="round" stroke-width="8"></path><path d="M41.25 86.25h-30a7.5 7.5 0 0 1 -7.5 -7.5V18.825a7.5 7.5 0 0 1 7.5 -7.5h67.5a7.5 7.5 0 0 1 7.5 7.5V41.25" fill="none" stroke="#000000" stroke-linecap="round" stroke-linejoin="round" stroke-width="8"></path><path d="m3.75 33.75 82.5 0" fill="none" stroke="#000000" stroke-linejoin="round" stroke-width="8"></path><path d="m26.215000000000003 18.75 0 -15" fill="none" stroke="#000000" stroke-linecap="round" stroke-linejoin="round" stroke-width="8"></path><path d="m63.715 18.75 0 -15" fill="none" stroke="#000000" stroke-linecap="round" stroke-linejoin="round" stroke-width="8"></path></svg>
