<svg xmlns="http://www.w3.org/2000/svg" fill="none" viewBox="-0.75 -0.75 24 24" height="24" width="24"><path stroke="#000000" stroke-linecap="round" stroke-linejoin="round" d="M20.859375 14.765625h-6.5625c-0.51778125 0 -0.9375 0.41971875 -0.9375 0.9375v5.15625c0 0.51778125 0.41971875 0.9375 0.9375 0.9375h6.5625c0.51778125 0 0.9375 -0.41971875 0.9375 -0.9375v-5.15625c0 -0.51778125 -0.41971875 -0.9375 -0.9375 -0.9375Z" stroke-width="1.5"></path><path stroke="#000000" stroke-linecap="round" stroke-linejoin="round" d="M17.578125 10.546875c-0.745875 0 -1.4612812499999999 0.29634375 -1.98871875 0.82378125 -0.5274375 0.5274375 -0.82378125 1.24284375 -0.82378125 1.98871875v1.40625h5.625v-1.40625c0 -0.745875 -0.29634375 -1.4612812499999999 -0.82378125 -1.98871875 -0.5274375 -0.5274375 -1.24284375 -0.82378125 -1.98871875 -0.82378125Z" stroke-width="1.5"></path><path stroke="#000000" d="M17.578125 18.66c-0.19415625 0 -0.3515625 -0.15740625 -0.3515625 -0.3515625s0.15740625 -0.3515625 0.3515625 -0.3515625" stroke-width="1.5"></path><path stroke="#000000" d="M17.578125 18.66c0.19415625 0 0.3515625 -0.15740625 0.3515625 -0.3515625s-0.15740625 -0.3515625 -0.3515625 -0.3515625" stroke-width="1.5"></path><path stroke="#000000" stroke-linecap="round" stroke-linejoin="round" d="M9.140625 18.984375h-7.03125c-0.37295625 0 -0.73065 -0.148125 -0.9943687499999999 -0.41184375C0.8512828125 18.3088125 0.703125 17.9510625 0.703125 17.578125V2.109375c0 -0.37295625 0.1481578125 -0.73065 0.41188125000000003 -0.9943687499999999C1.378725 0.8512828125 1.73641875 0.703125 2.109375 0.703125h9.9646875c0.37265625 0.0000796875 0.730125 0.148108125 0.99375 0.4115625l2.6925 2.6925c0.26343750000000005 0.263625 0.41146875 0.621046875 0.4115625 0.99375V6.328125" stroke-width="1.5"></path></svg>
