<svg width="30" height="28" viewBox="0 0 30 28" fill="none" xmlns="http://www.w3.org/2000/svg">
<path d="M2.64026 5.24999C2.64026 5.97527 2.92966 6.67084 3.4448 7.18369C3.95994 7.69654 4.65862 7.98465 5.38713 7.98465C6.11565 7.98465 6.81433 7.69654 7.32947 7.18369C7.84461 6.67084 8.13401 5.97527 8.13401 5.24999C8.13401 4.52471 7.84461 3.82913 7.32947 3.31629C6.81433 2.80344 6.11565 2.51532 5.38713 2.51532C4.65862 2.51532 3.95994 2.80344 3.4448 3.31629C2.92966 3.82913 2.64026 4.52471 2.64026 5.24999Z" stroke="#000000" stroke-width="1.5" stroke-linecap="round" stroke-linejoin="round"/>
<path d="M13.6266 5.24999C13.6266 5.97527 13.916 6.67084 14.4311 7.18369C14.9463 7.69654 15.6449 7.98465 16.3735 7.98465C17.102 7.98465 17.8007 7.69654 18.3158 7.18369C18.8309 6.67084 19.1203 5.97527 19.1203 5.24999C19.1203 4.52471 18.8309 3.82913 18.3158 3.31629C17.8007 2.80344 17.102 2.51532 16.3735 2.51532C15.6449 2.51532 14.9463 2.80344 14.4311 3.31629C13.916 3.82913 13.6266 4.52471 13.6266 5.24999Z" stroke="#000000" stroke-width="1.5" stroke-linecap="round" stroke-linejoin="round"/>
<path d="M13.6266 21.6568C13.6266 22.3821 13.916 23.0777 14.4311 23.5905C14.9463 24.1034 15.6449 24.3915 16.3735 24.3915C17.102 24.3915 17.8007 24.1034 18.3158 23.5905C18.8309 23.0777 19.1203 22.3821 19.1203 21.6568C19.1203 20.9316 18.8309 20.236 18.3158 19.7231C17.8007 19.2103 17.102 18.9222 16.3735 18.9222C15.6449 18.9222 14.9463 19.2103 14.4311 19.7231C13.916 20.236 13.6266 20.9316 13.6266 21.6568Z" stroke="#000000" stroke-width="1.5" stroke-linecap="round" stroke-linejoin="round"/>
<path d="M8.13397 5.25H13.6277" stroke="#000000" stroke-width="1.5" stroke-linecap="round" stroke-linejoin="round"/>
<path d="M5.38708 21.6569H13.6265" stroke="#000000" stroke-width="1.5" stroke-linecap="round" stroke-linejoin="round"/>
<path d="M19.1203 5.25C21.3057 5.25 23.4016 6.11429 24.9469 7.65273C26.4922 9.19116 27.3603 11.2777 27.3603 13.4534C27.3603 15.6291 26.4922 17.7157 24.9469 19.2541C23.4016 20.7925 21.3057 21.6568 19.1203 21.6568" stroke="#000000" stroke-width="1.5" stroke-linecap="round" stroke-linejoin="round"/>
<path d="M8.68245 17.8278L4.83752 21.6568L8.68245 25.4847" stroke="#000000" stroke-width="1.5" stroke-linecap="round" stroke-linejoin="round"/>
</svg>
