<svg width="16" height="16" viewBox="0 0 16 16" fill="none" xmlns="http://www.w3.org/2000/svg">
<g clip-path="url(#clip0_307_19366)">
<path d="M1.12061 2.77898V1.70715C1.12061 1.36198 1.40043 1.08215 1.74561 1.08215H2.81743M1.12061 5.63396V7.72121M5.67242 1.08215H7.75965M10.5813 1.08215H11.5791C11.9242 1.08215 12.2041 1.36198 12.2041 1.70715V2.77898M1.12061 10.5429V11.5406C1.12061 11.8858 1.40043 12.1656 1.74561 12.1656H2.81743" stroke="#000000" stroke-linecap="round" stroke-linejoin="round"/>
<path d="M14.8799 14.2928C14.8799 14.6379 14.6001 14.9178 14.2549 14.9178H5.04834C4.70316 14.9178 4.42334 14.6379 4.42334 14.2928V5.08618C4.42334 4.74101 4.70316 4.46118 5.04834 4.46118H14.2549C14.6001 4.46118 14.8799 4.74101 14.8799 5.08618V14.2928Z" stroke="#000000" stroke-linecap="round" stroke-linejoin="round"/>
</g>
<defs>
<clipPath id="clip0_307_19366">
<rect width="16" height="16" fill="white"/>
</clipPath>
</defs>
</svg>
