<svg xmlns="http://www.w3.org/2000/svg" viewBox="0 0 24 24" height="24" width="24" id="Vip-Crown-Queen-1--Streamline-Ultimate.svg"><desc>Vip Crown Queen 1 Streamline Icon: https://streamlinehq.com</desc><g id="Vip-Crown-Queen-1--Streamline-Ultimate.svg"><path d="m21.92 16.88 1.32 -9.95a0.75 0.75 0 0 0 -1.08 -0.78l-4.28 3.26a0.75 0.75 0 0 1 -1.09 -0.15l-4.23 -6.18a0.73 0.73 0 0 0 -1.12 0L7.21 9.26a0.75 0.75 0 0 1 -1.09 0.15L1.84 6.15a0.75 0.75 0 0 0 -1.08 0.78l1.32 10" fill="none" stroke="#000000" stroke-linecap="round" stroke-linejoin="round" stroke-width="1.5"></path><path d="M21 16.68H3a2.25 2.25 0 0 0 -2.25 2.25h0A2.25 2.25 0 0 0 3 21.18h18a2.25 2.25 0 0 0 2.25 -2.25h0A2.25 2.25 0 0 0 21 16.68Z" fill="none" stroke="#000000" stroke-linecap="round" stroke-linejoin="round" stroke-width="1.5"></path></g></svg>
