<svg viewBox="0 0 24 24" xmlns="http://www.w3.org/2000/svg" stroke-width="1.5" height="24" width="24"><path d="M22.5 17.248L22.5 12.748 18 12.748" fill="none" stroke="#000000" stroke-linecap="round" stroke-linejoin="round"></path><path d="M22.5,12.748,17.45,17.8a2.252,2.252,0,0,1-2.237.565L9.5,16.837a2.251,2.251,0,0,0-2.172.583L1.5,23.252" fill="none" stroke="#000000" stroke-linecap="round" stroke-linejoin="round"></path><path d="M12,5.252H9.967a1.342,1.342,0,0,0-.5,2.587l2.064.825a1.342,1.342,0,0,1-.5,2.588H9" fill="none" stroke="#000000" stroke-linecap="round" stroke-linejoin="round"></path><path d="M10.5 5.252L10.5 4.502" fill="none" stroke="#000000" stroke-linecap="round" stroke-linejoin="round"></path><path d="M10.5 12.002L10.5 11.252" fill="none" stroke="#000000" stroke-linecap="round" stroke-linejoin="round"></path><path d="M17.852,9.737A7.5,7.5,0,1,0,6,14.251" fill="none" stroke="#000000" stroke-linecap="round" stroke-linejoin="round"></path></svg>
