<svg width="16" height="16" viewBox="0 0 16 16" fill="none" xmlns="http://www.w3.org/2000/svg">
    <g clip-path="url(#clip0_257_914)">
        <path
            d="M0.5 8C0.5 9.98912 1.29018 11.8968 2.6967 13.3033C4.10322 14.7098 6.01088 15.5 8 15.5C9.98912 15.5 11.8968 14.7098 13.3033 13.3033C14.7098 11.8968 15.5 9.98912 15.5 8C15.5 6.01088 14.7098 4.10322 13.3033 2.6967C11.8968 1.29018 9.98912 0.5 8 0.5C6.01088 0.5 4.10322 1.29018 2.6967 2.6967C1.29018 4.10322 0.5 6.01088 0.5 8Z"
            stroke="#637381" stroke-linecap="round" stroke-linejoin="round" />
        <path
            d="M3.33335 13.8667L4.00002 10.5H4.72002C4.87207 10.5005 5.02219 10.4659 5.15865 10.3988C5.29511 10.3317 5.41422 10.234 5.50669 10.1133C5.60193 9.99541 5.66789 9.85661 5.69918 9.70829C5.73047 9.55997 5.72618 9.40635 5.68669 9.26L5.18669 7.26C5.13429 7.04318 5.01044 6.85031 4.83509 6.71244C4.65973 6.57458 4.44308 6.49975 4.22002 6.5H0.666687"
            stroke="#637381" stroke-linecap="round" stroke-linejoin="round" />
        <path
            d="M14 3.5H11.28C11.057 3.49975 10.8403 3.57458 10.665 3.71244C10.4896 3.85031 10.3658 4.04318 10.3134 4.26L9.81338 6.26C9.77479 6.40686 9.77159 6.56079 9.80404 6.70913C9.83649 6.85747 9.90366 6.996 10 7.11333C10.0925 7.23404 10.2116 7.33175 10.3481 7.39882C10.4845 7.4659 10.6347 7.50052 10.7867 7.5H11.84L12.36 10.6667C12.3991 10.8975 12.5178 11.1074 12.6957 11.2597C12.8736 11.412 13.0992 11.497 13.3334 11.5H14.6667"
            stroke="#637381" stroke-linecap="round" stroke-linejoin="round" />
    </g>
    <defs>
        <clipPath id="clip0_257_914">
            <rect width="16" height="16" fill="white" />
        </clipPath>
    </defs>
</svg>
