<svg width="150" height="180" viewBox="0 0 150 180" fill="none" xmlns="http://www.w3.org/2000/svg">
<ellipse cx="74.5" cy="167" rx="46.5" ry="13" fill="#E8EDF2"/>
<g clip-path="url(#clip0_417_45765)">
<path d="M60.37 143.409C47.848 140.74 36.2986 134.686 26.9804 125.905C17.6621 117.124 10.9323 105.955 7.52401 93.6138C4.11583 81.2719 4.16 68.2319 7.6517 55.9139C11.1435 43.5958 17.9488 32.4723 27.3264 23.7551C36.704 15.0379 48.294 9.0615 60.8338 6.477C73.3735 3.89251 86.3822 4.79903 98.4428 9.09782C110.503 13.3966 121.152 20.9228 129.23 30.8563C137.308 40.7898 142.504 52.7498 144.254 65.4331" stroke="#919EAB" stroke-width="9.375" stroke-linecap="round" stroke-linejoin="round"/>
<path d="M31.5184 129.728L37.7366 98.3263H44.3901C45.8016 98.3294 47.1954 98.0119 48.4664 97.3975C49.7374 96.7838 50.8525 95.8894 51.7276 94.7819C52.5876 93.6544 53.1846 92.3488 53.4751 90.9613C53.7656 89.5731 53.7421 88.1381 53.4066 86.76L48.7429 68.1056C48.2541 66.0831 47.099 64.2844 45.4634 62.9981C43.8278 61.7125 41.807 61.0145 39.7264 61.0169H6.64551" stroke="#919EAB" stroke-width="9.375" stroke-linecap="round" stroke-linejoin="round"/>
<path d="M131.01 33.0352H105.577C103.491 33.0407 101.466 33.7405 99.8227 35.0241C98.1789 36.3076 97.0089 38.102 96.4983 40.1241L93.7002 51.8765" stroke="#919EAB" stroke-width="9.375" stroke-linecap="round" stroke-linejoin="round"/>
<path d="M107.691 144.963C128.297 144.963 145.001 128.259 145.001 107.654C145.001 87.0487 128.297 70.3444 107.691 70.3444C87.0856 70.3444 70.3818 87.0487 70.3818 107.654C70.3818 128.259 87.0856 144.963 107.691 144.963Z" stroke="#919EAB" stroke-width="9.375" stroke-linecap="round" stroke-linejoin="round"/>
<path d="M96.0002 100.69C95.9883 98.375 96.6633 96.1087 97.9402 94.1781C99.217 92.2475 101.039 90.7394 103.174 89.845C105.309 88.9506 107.661 88.7106 109.933 89.1544C112.205 89.5987 114.293 90.7069 115.935 92.3394C117.576 93.9719 118.695 96.0544 119.151 98.3237C119.608 100.593 119.38 102.947 118.497 105.087C117.614 107.227 116.116 109.056 114.192 110.343C112.268 111.631 110.005 112.318 107.691 112.318" stroke="#919EAB" stroke-width="9.375" stroke-linecap="round" stroke-linejoin="round"/>
<path d="M107.691 130.973C106.404 130.973 105.359 129.929 105.359 128.641C105.359 127.353 106.404 126.309 107.691 126.309" stroke="#919EAB" stroke-width="9.375"/>
<path d="M107.69 130.973C108.979 130.973 110.022 129.929 110.022 128.641C110.022 127.353 108.979 126.309 107.69 126.309" stroke="#919EAB" stroke-width="9.375"/>
</g>
<defs>
<clipPath id="clip0_417_45765">
<rect width="150" height="150" fill="white"/>
</clipPath>
</defs>
</svg>
