<svg xmlns="http://www.w3.org/2000/svg" viewBox="0 0 24 24" height="24" width="24" id="Factory-Building-1--Streamline-Ultimate.svg"><desc>Factory Building 1 Streamline Icon: https://streamlinehq.com</desc><defs></defs><path d="M3.179 15.362 4.214 4.49l4.75 0 0.872 9.149" fill="none" stroke="#000000" stroke-linecap="round" stroke-linejoin="round" stroke-width="1.5"></path><path d="M0.75 23.24h22.5V11.6a1.109 1.109 0 0 0 -1.109 -1.109 1.088 1.088 0 0 0 -0.278 0.036L1.5 15.8a1 1 0 0 0 -0.749 0.969Z" fill="none" stroke="#000000" stroke-linecap="round" stroke-linejoin="round" stroke-width="1.5"></path><path d="M8.005 0.879A6.937 6.937 0 0 1 11 1.5C18.429 4.672 21.5 0.76 21.5 0.76" fill="none" stroke="#000000" stroke-linecap="round" stroke-linejoin="round" stroke-width="1.5"></path><path d="m19.75 23.241 -5 0 0 0 0 -4.5a1 1 0 0 1 1 -1l3 0a1 1 0 0 1 1 1l0 4.5 0 0Z" fill="none" stroke="#000000" stroke-linecap="round" stroke-linejoin="round" stroke-width="1.5"></path><path d="m11.25 19.24 -1.5 0" fill="none" stroke="#000000" stroke-linecap="round" stroke-linejoin="round" stroke-width="1.5"></path><path d="m6.25 19.24 -1.5 0" fill="none" stroke="#000000" stroke-linecap="round" stroke-linejoin="round" stroke-width="1.5"></path></svg>
