<svg xmlns="http://www.w3.org/2000/svg" viewBox="0 0 24 24" height="24" width="24"><defs></defs><title>floppy-disk</title><path d="M21.75 23.25H2.25a1.5 1.5 0 0 1 -1.5 -1.5V7.243a3 3 0 0 1 0.879 -2.121l3.492 -3.493A3 3 0 0 1 7.243 0.75H21.75a1.5 1.5 0 0 1 1.5 1.5v19.5a1.5 1.5 0 0 1 -1.5 1.5Z" fill="none" stroke="#000000" stroke-linecap="round" stroke-linejoin="round" stroke-width="1.5"></path><path d="M8.25 0.75v6a1.5 1.5 0 0 0 1.5 1.5h7.5a1.5 1.5 0 0 0 1.5 -1.5v-6" fill="none" stroke="#000000" stroke-linecap="round" stroke-linejoin="round" stroke-width="1.5"></path><path d="m15.75 3.75 0 1.5" fill="none" stroke="#000000" stroke-linecap="round" stroke-linejoin="round" stroke-width="1.5"></path><path d="M17.25 12.75H6.75a1.5 1.5 0 0 0 -1.5 1.5v9h13.5v-9a1.5 1.5 0 0 0 -1.5 -1.5Z" fill="none" stroke="#000000" stroke-linecap="round" stroke-linejoin="round" stroke-width="1.5"></path><path d="m8.25 15.75 4.5 0" fill="none" stroke="#000000" stroke-linecap="round" stroke-linejoin="round" stroke-width="1.5"></path><path d="m8.25 18.75 7.5 0" fill="none" stroke="#000000" stroke-linecap="round" stroke-linejoin="round" stroke-width="1.5"></path></svg>
