<svg xmlns="http://www.w3.org/2000/svg" fill="none" viewBox="0 0 24 24" stroke-width="1.5" height="48" width="48"><path stroke="#000000" stroke-linecap="round" stroke-linejoin="round" d="M15.001 6C16.4507 6 17.626 4.82475 17.626 3.375C17.626 1.92525 16.4507 0.75 15.001 0.75C13.5512 0.75 12.376 1.92525 12.376 3.375C12.376 4.82475 13.5512 6 15.001 6Z"></path><path stroke="#000000" stroke-linecap="round" stroke-linejoin="round" d="M23.156 21.2397L18.656 8.48968C18.5611 8.22149 18.3919 7.98581 18.1682 7.81014C17.9444 7.63448 17.6753 7.52606 17.3922 7.49755C17.1092 7.46903 16.8239 7.52159 16.5696 7.6491C16.3153 7.77661 16.1025 7.9738 15.956 8.21768C15.3512 9.1208 14.5393 9.86627 13.588 10.392C12.6367 10.9176 11.5735 11.2083 10.487 11.2397C10.29 11.2401 10.095 11.2793 9.9132 11.355C9.73136 11.4308 9.56622 11.5416 9.42721 11.6811C9.14647 11.963 8.9892 12.3449 8.98999 12.7427C8.99079 13.1405 9.14959 13.5217 9.43145 13.8025C9.71332 14.0832 10.0952 14.2405 10.493 14.2397C12.7554 14.1628 14.9314 13.3524 16.693 11.9307L17.528 14.2957L16.374 14.8717C15.5283 15.2963 14.7948 15.9144 14.2328 16.6758C13.6709 17.4372 13.2965 18.3204 13.14 19.2537L12.761 21.4957C12.7008 21.8858 12.7967 22.2839 13.0281 22.6038C13.2594 22.9236 13.6075 23.1393 13.9969 23.2042C14.3863 23.2691 14.7855 23.1779 15.1081 22.9503C15.4306 22.7228 15.6505 22.3772 15.72 21.9887L16.094 19.7487C16.1721 19.2821 16.3593 18.8406 16.6403 18.4601C16.9213 18.0795 17.2881 17.7707 17.711 17.5587L18.529 17.1497L20.329 22.2417C20.3947 22.4275 20.4963 22.5986 20.628 22.7451C20.7598 22.8917 20.9192 23.0108 21.097 23.0958C21.2748 23.1808 21.4676 23.2299 21.6644 23.2403C21.8612 23.2508 22.0582 23.2223 22.244 23.1567C22.4298 23.091 22.6009 22.9894 22.7474 22.8576C22.894 22.7259 23.0131 22.5665 23.0981 22.3887C23.1831 22.2109 23.2322 22.018 23.2426 21.8212C23.2531 21.6244 23.2247 21.4275 23.159 21.2417L23.156 21.2397Z"></path><path stroke="#000000" stroke-linecap="round" stroke-linejoin="round" d="M2.857 23.2424C2.48507 23.2423 2.12646 23.104 1.85076 22.8543C1.57507 22.6047 1.40194 22.2615 1.365 21.8914L0.75 15.7424H9L8.385 21.8914C8.34804 22.2617 8.17478 22.605 7.89887 22.8547C7.62296 23.1043 7.2641 23.2425 6.892 23.2424H2.857Z"></path><path stroke="#000000" stroke-linecap="round" stroke-linejoin="round" d="M3.75 12.744C4.57843 12.744 5.25 12.0724 5.25 11.244C5.25 10.4156 4.57843 9.74402 3.75 9.74402C2.92157 9.74402 2.25 10.4156 2.25 11.244C2.25 12.0724 2.92157 12.744 3.75 12.744Z"></path><g><path stroke="#000000" d="M6.75 7.11902C6.54289 7.11902 6.375 6.95113 6.375 6.74402C6.375 6.53691 6.54289 6.36902 6.75 6.36902"></path><path stroke="#000000" d="M6.75 7.11902C6.95711 7.11902 7.125 6.95113 7.125 6.74402C7.125 6.53691 6.95711 6.36902 6.75 6.36902"></path></g></svg>
