<svg width="24" height="24" viewBox="0 0 24 24" fill="none" xmlns="http://www.w3.org/2000/svg">
<path d="M6 14.248V18.748H1.5" stroke="#4B71FA" stroke-width="1.5" stroke-linecap="round" stroke-linejoin="round"/>
<path d="M5.71689 18.7509C4.16985 17.1336 3.22613 15.0334 3.04406 12.8028C2.86199 10.5721 3.45265 8.34668 4.71694 6.4999C5.98123 4.65312 7.84222 3.29735 9.98766 2.66008C12.1331 2.02281 14.4324 2.1428 16.4999 2.99993" stroke="#4B71FA" stroke-width="1.5" stroke-linecap="round" stroke-linejoin="round"/>
<path d="M5.71204 18.7459C4.04979 17.0086 3.09045 14.7168 3.01939 12.3135C2.94832 9.91007 3.77058 7.56564 5.32729 5.73316C6.88399 3.90068 9.06464 2.71022 11.4479 2.39179C13.8312 2.07337 16.2479 2.64958 18.231 4.0091C20.2142 5.36862 21.6231 7.41494 22.1855 9.75268C22.7479 12.0904 22.4239 14.5536 21.276 16.6664C20.1282 18.7792 18.238 20.3915 15.9707 21.1919C13.7034 21.9922 11.2199 21.9238 9.00004 20.9999" stroke="#4B71FA" stroke-width="1.5" stroke-linecap="round" stroke-linejoin="round"/>
</svg>
