<svg width="22" height="22" viewBox="0 0 22 22" fill="none" xmlns="http://www.w3.org/2000/svg">
<g clip-path="url(#clip0_513_45213)">
<path d="M19.9375 0.6875L13.2 7.425C12.9709 7.65623 12.6669 7.79806 12.3425 7.82495C12.0181 7.85184 11.6948 7.76202 11.4308 7.57167L8.40583 5.4175C8.15812 5.24842 7.86193 5.16497 7.56238 5.17987C7.26284 5.19476 6.97638 5.30718 6.74667 5.5L0.6875 10.3125" stroke="#454F5B" stroke-width="1.375" stroke-linecap="round" stroke-linejoin="round"/>
<path d="M14.4375 0.6875H19.9375V6.1875" stroke="#454F5B" stroke-width="1.375" stroke-linecap="round" stroke-linejoin="round"/>
<path d="M20.625 17.6458H13.75C13.3703 17.6458 13.0625 17.9536 13.0625 18.3333V20.6249C13.0625 21.0046 13.3703 21.3124 13.75 21.3124H20.625C21.0047 21.3124 21.3125 21.0046 21.3125 20.6249V18.3333C21.3125 17.9536 21.0047 17.6458 20.625 17.6458Z" stroke="#454F5B" stroke-width="1.375" stroke-linecap="round" stroke-linejoin="round"/>
<path d="M9.625 17.6458H2.75C2.3703 17.6458 2.0625 17.9536 2.0625 18.3333V20.6249C2.0625 21.0046 2.3703 21.3124 2.75 21.3124H9.625C10.0047 21.3124 10.3125 21.0046 10.3125 20.6249V18.3333C10.3125 17.9536 10.0047 17.6458 9.625 17.6458Z" stroke="#454F5B" stroke-width="1.375" stroke-linecap="round" stroke-linejoin="round"/>
<path d="M8.25 13.9792H1.375C0.995304 13.9792 0.6875 14.2871 0.6875 14.6667V16.9584C0.6875 17.3381 0.995304 17.6459 1.375 17.6459H8.25C8.6297 17.6459 8.9375 17.3381 8.9375 16.9584V14.6667C8.9375 14.2871 8.6297 13.9792 8.25 13.9792Z" stroke="#454F5B" stroke-width="1.375" stroke-linecap="round" stroke-linejoin="round"/>
<path d="M19.25 13.9792H12.375C11.9953 13.9792 11.6875 14.2871 11.6875 14.6667V16.9584C11.6875 17.3381 11.9953 17.6459 12.375 17.6459H19.25C19.6297 17.6459 19.9375 17.3381 19.9375 16.9584V14.6667C19.9375 14.2871 19.6297 13.9792 19.25 13.9792Z" stroke="#454F5B" stroke-width="1.375" stroke-linecap="round" stroke-linejoin="round"/>
<path d="M20.625 10.3125H13.75C13.3703 10.3125 13.0625 10.6203 13.0625 11V13.2917C13.0625 13.6714 13.3703 13.9792 13.75 13.9792H20.625C21.0047 13.9792 21.3125 13.6714 21.3125 13.2917V11C21.3125 10.6203 21.0047 10.3125 20.625 10.3125Z" stroke="#454F5B" stroke-width="1.375" stroke-linecap="round" stroke-linejoin="round"/>
</g>
<defs>
<clipPath id="clip0_513_45213">
<rect width="22" height="22" fill="white"/>
</clipPath>
</defs>
</svg>
