<svg xmlns="http://www.w3.org/2000/svg" viewBox="0 0 24 24" height="24" width="24" id="Monitor-Remove--Streamline-Streamline--3.0.svg"><desc>Monitor Remove Streamline Icon: https://streamlinehq.com</desc><g><g><path d="m8.25 20.25 0.75 -4.5" fill="none" stroke="#000000" stroke-linecap="round" stroke-linejoin="round" stroke-width="1.5"></path><path d="m6 20.25 2.25 0" fill="none" stroke="#000000" stroke-linecap="round" stroke-linejoin="round" stroke-width="1.5"></path><path d="m0.75 11.75 9.03 0" fill="none" stroke="#000000" stroke-linecap="round" stroke-linejoin="round" stroke-width="1.5"></path><path d="M9 15.75H3.75a3 3 0 0 1 -3 -3v-9a3 3 0 0 1 3 -3h16.5a3 3 0 0 1 3 3v7.5" fill="none" stroke="#000000" stroke-linecap="round" stroke-linejoin="round" stroke-width="1.5"></path></g><g><path d="M11.25 17.25a6 6 0 1 0 12 0 6 6 0 1 0 -12 0" fill="none" stroke="#000000" stroke-linecap="round" stroke-linejoin="round" stroke-width="1.5"></path><path d="M19.5 15 15 19.5" fill="none" stroke="#000000" stroke-linecap="round" stroke-linejoin="round" stroke-width="1.5"></path><path d="m15 15 4.5 4.5" fill="none" stroke="#000000" stroke-linecap="round" stroke-linejoin="round" stroke-width="1.5"></path></g></g></svg>