<svg width="29" height="29" viewBox="0 0 29 29" fill="none" xmlns="http://www.w3.org/2000/svg">
<path d="M4.88501 6.47269C6.04882 5.02264 7.52205 3.85422 9.19572 3.05387C10.8694 2.25352 12.7006 1.84173 14.554 1.84897C16.4074 1.85621 18.2354 2.28229 19.9028 3.09569C21.5702 3.90909 23.0344 5.08899 24.187 6.54809" stroke="#000000" stroke-width="1.5" stroke-linecap="round" stroke-linejoin="round"/>
<path d="M5.44165 18.4161V10.133L8.73814 18.4161V10.133" stroke="#000000" stroke-width="1.5" stroke-linecap="round" stroke-linejoin="round"/>
<path d="M15.3288 18.4161H13.6811C13.2441 18.4161 12.825 18.2416 12.516 17.9309C12.207 17.6203 12.0334 17.199 12.0334 16.7597V11.7894C12.0334 11.3501 12.207 10.9288 12.516 10.6181C12.825 10.3075 13.2441 10.133 13.6811 10.133H15.3288" stroke="#000000" stroke-width="1.5" stroke-linecap="round" stroke-linejoin="round"/>
<path d="M12.0334 15.1021H15.3299" stroke="#000000" stroke-width="1.5" stroke-linecap="round" stroke-linejoin="round"/>
<path d="M18.6252 10.1318V12.3596C18.6255 13.624 18.8658 14.8767 19.3331 16.0505L20.2729 18.4149L21.9206 12.6164L23.5682 18.4149L24.5092 16.0505C24.9761 14.8766 25.2159 13.6239 25.2159 12.3596V10.1318" stroke="#000000" stroke-width="1.5" stroke-linecap="round" stroke-linejoin="round"/>
<path d="M4.64478 21.7289C5.79157 23.2699 7.27947 24.5213 8.99067 25.3842C10.7019 26.247 12.5894 26.6975 14.5038 26.7C16.4181 26.7025 18.3068 26.257 20.0203 25.3986C21.7337 24.5403 23.2248 23.2928 24.3756 21.7548" stroke="#000000" stroke-width="1.5" stroke-linecap="round" stroke-linejoin="round"/>
</svg>
