<svg width="13" height="15" viewBox="0 0 13 15" fill="none" xmlns="http://www.w3.org/2000/svg">
<g clip-path="url(#clip0_1213_9025)">
<path d="M3.36719 4.07388C3.36719 4.91709 3.70215 5.72577 4.2984 6.32202C4.89464 6.91826 5.70332 7.25323 6.54654 7.25323C7.38975 7.25323 8.19843 6.91826 8.79467 6.32202C9.39092 5.72577 9.72588 4.91709 9.72588 4.07388C9.72588 3.23066 9.39092 2.42198 8.79467 1.82574C8.19843 1.2295 7.38975 0.894531 6.54654 0.894531C5.70332 0.894531 4.89464 1.2295 4.2984 1.82574C3.70215 2.42198 3.36719 3.23066 3.36719 4.07388Z" stroke="#637381" stroke-linecap="round" stroke-linejoin="round"/>
<path d="M12.1989 13.6129C12.0149 12.2444 11.3405 10.989 10.3011 10.08C9.26159 9.17095 7.9276 8.66992 6.5467 8.66992C5.16581 8.66992 3.83182 9.17095 2.79236 10.08C1.75289 10.989 1.07856 12.2444 0.894531 13.6129" stroke="#637381" stroke-linecap="round" stroke-linejoin="round"/>
</g>
<defs>
<clipPath id="clip0_1213_9025">
<rect width="13" height="14.5072" fill="white"/>
</clipPath>
</defs>
</svg>
