<svg viewBox="0 0 24 24" height="48" width="48" xmlns="http://www.w3.org/2000/svg" stroke-width="1.5"><path d="M5.25,17.249h-3a1.5,1.5,0,0,1-1.5-1.5v-7.5a1.5,1.5,0,0,1,1.5-1.5h19.5a1.5,1.5,0,0,1,1.5,1.5v7.5a1.5,1.5,0,0,1-1.5,1.5h-3" fill="none" stroke="#000000" stroke-linecap="round" stroke-linejoin="round"></path><path d="M3.75 9.749L5.25 9.749" fill="none" stroke="#000000" stroke-linecap="round" stroke-linejoin="round"></path><path d="M5.25 12.749H18.75V23.249000000000002H5.25z" fill="none" stroke="#000000" stroke-linecap="round" stroke-linejoin="round"></path><path d="M18.75,6.749H5.25v-4.5a1.5,1.5,0,0,1,1.5-1.5h10.5a1.5,1.5,0,0,1,1.5,1.5Z" fill="none" stroke="#000000" stroke-linecap="round" stroke-linejoin="round"></path><path d="M8.25 15.749L15.75 15.749" fill="none" stroke="#000000" stroke-linecap="round" stroke-linejoin="round"></path><path d="M8.25 18.749L13.5 18.749" fill="none" stroke="#000000" stroke-linecap="round" stroke-linejoin="round"></path></svg>
