<svg xmlns="http://www.w3.org/2000/svg" fill="none" viewBox="-0.75 -0.75 48 48" stroke-width="1.5" height="48" width="48"><path stroke="#000000" d="M23.25 23.977a0.727 0.727 0 0 1 0 -1.453" stroke-width="1.5"></path><path stroke="#000000" d="M23.25 23.977a0.727 0.727 0 0 0 0 -1.453" stroke-width="1.5"></path><path stroke="#000000" stroke-linecap="round" stroke-linejoin="round" d="M23.25 45.047c12.038 0 21.797 -9.759 21.797 -21.797S35.288 1.453 23.25 1.453 1.453 11.212 1.453 23.25 11.212 45.047 23.25 45.047Z" stroke-width="1.5"></path><path stroke="#000000" stroke-linecap="round" stroke-linejoin="round" d="M19.981 17.589 15.256 9.407A15.977 15.977 0 0 0 7.266 23.25h9.445a6.529 6.529 0 0 1 3.27 -5.661Z" stroke-width="1.5"></path><path stroke="#000000" stroke-linecap="round" stroke-linejoin="round" d="m19.981 28.913 -4.726 8.182a15.979 15.979 0 0 0 15.986 0l-4.724 -8.18a6.533 6.533 0 0 1 -6.537 -0.002Z" stroke-width="1.5"></path><path stroke="#000000" stroke-linecap="round" stroke-linejoin="round" d="M29.789 23.25h9.447a15.975 15.975 0 0 0 -7.994 -13.841l-4.724 8.178A6.541 6.541 0 0 1 29.789 23.25Z" stroke-width="1.5"></path></svg>
