<svg width="24" height="24" viewBox="0 0 24 24" fill="none" xmlns="http://www.w3.org/2000/svg">
<g clip-path="url(#clip0_6122_8136)">
<path d="M3.75 0.74707H2.25C1.42157 0.74707 0.75 1.41864 0.75 2.24707V3.74707C0.75 4.5755 1.42157 5.24707 2.25 5.24707H3.75C4.57843 5.24707 5.25 4.5755 5.25 3.74707V2.24707C5.25 1.41864 4.57843 0.74707 3.75 0.74707Z" stroke="white" stroke-width="1.5" stroke-linecap="round" stroke-linejoin="round"/>
<path d="M12.75 0.74707H11.25C10.4216 0.74707 9.75 1.41864 9.75 2.24707V3.74707C9.75 4.5755 10.4216 5.24707 11.25 5.24707H12.75C13.5784 5.24707 14.25 4.5755 14.25 3.74707V2.24707C14.25 1.41864 13.5784 0.74707 12.75 0.74707Z" stroke="white" stroke-width="1.5" stroke-linecap="round" stroke-linejoin="round"/>
<path d="M21.75 0.74707H20.25C19.4216 0.74707 18.75 1.41864 18.75 2.24707V3.74707C18.75 4.5755 19.4216 5.24707 20.25 5.24707H21.75C22.5784 5.24707 23.25 4.5755 23.25 3.74707V2.24707C23.25 1.41864 22.5784 0.74707 21.75 0.74707Z" stroke="white" stroke-width="1.5" stroke-linecap="round" stroke-linejoin="round"/>
<path d="M3.75 9.74707H2.25C1.42157 9.74707 0.75 10.4186 0.75 11.2471V12.7471C0.75 13.5755 1.42157 14.2471 2.25 14.2471H3.75C4.57843 14.2471 5.25 13.5755 5.25 12.7471V11.2471C5.25 10.4186 4.57843 9.74707 3.75 9.74707Z" stroke="white" stroke-width="1.5" stroke-linecap="round" stroke-linejoin="round"/>
<path d="M12.75 9.74707H11.25C10.4216 9.74707 9.75 10.4186 9.75 11.2471V12.7471C9.75 13.5755 10.4216 14.2471 11.25 14.2471H12.75C13.5784 14.2471 14.25 13.5755 14.25 12.7471V11.2471C14.25 10.4186 13.5784 9.74707 12.75 9.74707Z" stroke="white" stroke-width="1.5" stroke-linecap="round" stroke-linejoin="round"/>
<path d="M21.75 9.74707H20.25C19.4216 9.74707 18.75 10.4186 18.75 11.2471V12.7471C18.75 13.5755 19.4216 14.2471 20.25 14.2471H21.75C22.5784 14.2471 23.25 13.5755 23.25 12.7471V11.2471C23.25 10.4186 22.5784 9.74707 21.75 9.74707Z" stroke="white" stroke-width="1.5" stroke-linecap="round" stroke-linejoin="round"/>
<path d="M3.75 18.7471H2.25C1.42157 18.7471 0.75 19.4186 0.75 20.2471V21.7471C0.75 22.5755 1.42157 23.2471 2.25 23.2471H3.75C4.57843 23.2471 5.25 22.5755 5.25 21.7471V20.2471C5.25 19.4186 4.57843 18.7471 3.75 18.7471Z" stroke="white" stroke-width="1.5" stroke-linecap="round" stroke-linejoin="round"/>
<path d="M12.75 18.7471H11.25C10.4216 18.7471 9.75 19.4186 9.75 20.2471V21.7471C9.75 22.5755 10.4216 23.2471 11.25 23.2471H12.75C13.5784 23.2471 14.25 22.5755 14.25 21.7471V20.2471C14.25 19.4186 13.5784 18.7471 12.75 18.7471Z" stroke="white" stroke-width="1.5" stroke-linecap="round" stroke-linejoin="round"/>
<path d="M21.75 18.7471H20.25C19.4216 18.7471 18.75 19.4186 18.75 20.2471V21.7471C18.75 22.5755 19.4216 23.2471 20.25 23.2471H21.75C22.5784 23.2471 23.25 22.5755 23.25 21.7471V20.2471C23.25 19.4186 22.5784 18.7471 21.75 18.7471Z" stroke="white" stroke-width="1.5" stroke-linecap="round" stroke-linejoin="round"/>
</g>
<defs>
<clipPath id="clip0_6122_8136">
<rect width="24" height="24" fill="white"/>
</clipPath>
</defs>
</svg>
