<svg viewBox="0 0 48 48" xmlns="http://www.w3.org/2000/svg"><g transform="matrix(2,0,0,2,0,0)"><path d="M22.9,1.3A1.5,1.5,0,0,0,21.75.764H2.25A1.5,1.5,0,0,0,.772,2.521l3.387,19.5a1.5,1.5,0,0,0,1.478,1.243H18.363a1.5,1.5,0,0,0,1.478-1.243l3.387-19.5A1.5,1.5,0,0,0,22.9,1.3Z" fill="none" stroke="#000000" stroke-linecap="round" stroke-linejoin="round" stroke-width="1.5"></path><path d="M10.125 13.514L6.375 13.514 6.375 17.264" fill="none" stroke="#000000" stroke-linecap="round" stroke-linejoin="round" stroke-width="1.5"></path><path d="M17.792,14.247a5.572,5.572,0,0,1-10.74-.733" fill="none" stroke="#000000" stroke-linecap="round" stroke-linejoin="round" stroke-width="1.5"></path><path d="M14.625 10.514L18.375 10.514 18.375 6.764" fill="none" stroke="#000000" stroke-linecap="round" stroke-linejoin="round" stroke-width="1.5"></path><path d="M6.958,9.781a5.572,5.572,0,0,1,10.74.733" fill="none" stroke="#000000" stroke-linecap="round" stroke-linejoin="round" stroke-width="1.5"></path></g></svg>
