<svg width="24" height="24" viewBox="0 0 24 24" fill="none" xmlns="http://www.w3.org/2000/svg">
<g>
<path d="M20.25 12.75V2.25C20.25 1.85218 20.092 1.47064 19.8107 1.18934C19.5294 0.908035 19.1478 0.75 18.75 0.75H5.25C4.85218 0.75 4.47064 0.908035 4.18934 1.18934C3.90804 1.47064 3.75 1.85218 3.75 2.25V12.75" stroke="#000000" stroke-width="1.75" stroke-linecap="round" stroke-linejoin="round"/>
<path d="M22.0001 11.4602C22.1131 11.3745 22.2476 11.3216 22.3888 11.3075C22.53 11.2934 22.6723 11.3186 22.8001 11.3802C22.927 11.4398 23.0342 11.5346 23.1086 11.6534C23.1831 11.7723 23.2218 11.91 23.2201 12.0502V21.7502C23.2201 22.1481 23.062 22.5296 22.7807 22.8109C22.4994 23.0922 22.1179 23.2502 21.7201 23.2502H2.25006C1.85223 23.2502 1.4707 23.0922 1.1894 22.8109C0.908092 22.5296 0.750056 22.1481 0.750056 21.7502V12.0502C0.748315 11.91 0.786998 11.7723 0.86148 11.6534C0.935963 11.5346 1.04309 11.4398 1.17006 11.3802C1.29783 11.3186 1.44016 11.2934 1.58133 11.3075C1.7225 11.3216 1.85702 11.3745 1.97006 11.4602L10.1501 17.3602C10.678 17.7738 11.3294 17.9986 12.0001 17.9986C12.6707 17.9986 13.3221 17.7738 13.8501 17.3602L22.0001 11.4602Z" stroke="#000000" stroke-width="1.75" stroke-linecap="round" stroke-linejoin="round"/>
<path d="M7.75 4.25H11.25" stroke="#000000" stroke-width="1.75" stroke-linecap="round" stroke-linejoin="round"/>
<path d="M7.75 7.75H16.25" stroke="#000000" stroke-width="1.75" stroke-linecap="round" stroke-linejoin="round"/>
<path d="M7.75 11.25H16.25" stroke="#000000" stroke-width="1.75" stroke-linecap="round" stroke-linejoin="round"/>
</g>
</svg>
