<svg width="150" height="150" viewBox="0 0 150 150" fill="none" xmlns="http://www.w3.org/2000/svg">
<path d="M15.6001 74.9999C15.6001 90.7537 21.8583 105.862 32.998 117.002C44.1376 128.142 59.2462 134.4 75.0001 134.4C90.754 134.4 105.863 128.142 117.002 117.002C128.142 105.862 134.4 90.7537 134.4 74.9999C134.4 67.1993 132.864 59.4752 129.879 52.2685C126.893 45.0617 122.518 38.5135 117.002 32.9977C111.486 27.4819 104.938 23.1065 97.7315 20.1214C90.5248 17.1363 82.8006 15.5999 75.0001 15.5999C67.1996 15.5999 59.4754 17.1363 52.2687 20.1214C45.062 23.1065 38.5138 27.4819 32.998 32.9977C27.4822 38.5135 23.1068 45.0617 20.1217 52.2685C17.1365 59.4752 15.6001 67.1993 15.6001 74.9999Z" fill="#E3DFDF"/>
<path d="M50.3936 104.819L47.382 111.278L34.5278 102.297L37.5394 95.8374L50.3936 104.819Z" fill="#BAB2B2" stroke="#575757" stroke-width="1.5" stroke-linecap="round" stroke-linejoin="round"/>
<path d="M50.3936 104.819L47.382 111.278L34.5278 102.297L37.5394 95.8374L50.3936 104.819Z" stroke="#575757" stroke-width="1.5" stroke-linecap="round" stroke-linejoin="round"/>
<path d="M19.1062 93.3486C18.9826 93.3674 18.8643 93.412 18.7591 93.4795C18.6539 93.547 18.564 93.6359 18.4954 93.7403C18.4268 93.8448 18.3809 93.9626 18.3608 94.086C18.3406 94.2093 18.3467 94.3356 18.3785 94.4564C18.827 96.1649 19.7499 97.7115 21.0407 98.9173C22.3314 100.123 23.9371 100.939 25.672 101.27C27.407 101.602 29.2004 101.435 30.8447 100.79C32.4889 100.145 33.917 99.0475 34.9636 97.6246C36.0103 96.2018 36.6327 94.5117 36.759 92.7499C36.8853 90.988 36.5102 89.2265 35.6772 87.6689C34.8441 86.1113 33.5872 84.8214 32.0517 83.9483C30.5162 83.0753 28.7649 82.6547 27.0004 82.7353C26.8756 82.741 26.7533 82.7728 26.6415 82.8288C26.5298 82.8848 26.4311 82.9637 26.3518 83.0603C26.2725 83.157 26.2145 83.2692 26.1814 83.3898C26.1484 83.5103 26.141 83.6364 26.1599 83.76L26.5653 86.4241C26.5975 86.634 26.7036 86.8255 26.8646 86.9641C27.0255 87.1027 27.2306 87.1792 27.4429 87.1799C28.3474 87.1834 29.2332 87.437 30.0023 87.9128C30.7715 88.3886 31.3939 89.0679 31.8008 89.8756C32.2078 90.6833 32.3832 91.5879 32.3078 92.4892C32.2323 93.3904 31.9089 94.2532 31.3734 94.9821C30.8379 95.7109 30.1112 96.2773 29.2736 96.6186C28.4361 96.9599 27.5204 97.0627 26.628 96.9158C25.7356 96.7688 24.9013 96.3778 24.2175 95.7859C23.5336 95.1941 23.0268 94.4245 22.7533 93.5625C22.6892 93.3601 22.5549 93.1873 22.3747 93.0751C22.1945 92.9629 21.9801 92.9188 21.7702 92.9507L19.1062 93.3486Z" fill="#BAB2B2" stroke="#575757" stroke-width="1.5" stroke-linecap="round" stroke-linejoin="round"/>
<path d="M29.5903 97.9446C29.5903 99.3625 30.1536 100.722 31.1561 101.725C32.1587 102.727 33.5185 103.291 34.9363 103.291C36.3542 103.291 37.714 102.727 38.7165 101.725C39.7191 100.722 40.2823 99.3625 40.2823 97.9446C40.2823 96.5268 39.7191 95.167 38.7165 94.1644C37.714 93.1619 36.3542 92.5986 34.9363 92.5986C33.5185 92.5986 32.1587 93.1619 31.1561 94.1644C30.1536 95.167 29.5903 96.5268 29.5903 97.9446Z" fill="white" stroke="#575757" stroke-width="1.5" stroke-linecap="round" stroke-linejoin="round"/>
<path d="M97.1265 105.49L99.5307 112.201L113.159 104.443L110.754 97.7322L97.1265 105.49Z" fill="#BAB2B2" stroke="#575757" stroke-width="1.5" stroke-linecap="round" stroke-linejoin="round"/>
<path d="M97.1265 105.49L99.5307 112.201L113.159 104.443L110.754 97.7322L97.1265 105.49Z" stroke="#575757" stroke-width="1.5" stroke-linecap="round" stroke-linejoin="round"/>
<path d="M129.339 96.9555C129.46 96.9856 129.574 97.0408 129.672 97.1175C129.771 97.1943 129.852 97.2909 129.911 97.401C129.97 97.5114 130.005 97.633 130.014 97.7578C130.023 97.8827 130.005 98.008 129.963 98.1257C129.359 99.7855 128.297 101.24 126.901 102.322C125.504 103.404 123.83 104.068 122.072 104.238C120.314 104.408 118.544 104.077 116.966 103.283C115.388 102.489 114.067 101.264 113.156 99.7511C112.245 98.2379 111.781 96.4977 111.818 94.7318C111.855 92.9658 112.39 91.2464 113.363 89.7722C114.336 88.2981 115.707 87.1295 117.316 86.4016C118.925 85.6738 120.708 85.4163 122.457 85.6591C122.581 85.6763 122.7 85.7193 122.806 85.7853C122.912 85.8513 123.003 85.9389 123.073 86.0424C123.143 86.1459 123.191 86.263 123.213 86.386C123.234 86.509 123.23 86.6353 123.2 86.7565L122.55 89.3716C122.498 89.5777 122.375 89.7588 122.202 89.8821C122.029 90.0055 121.818 90.063 121.607 90.0443C120.706 89.9643 119.8 90.1353 118.99 90.5382C118.18 90.9412 117.498 91.5604 117.018 92.3273C116.539 93.0943 116.281 93.979 116.273 94.8835C116.265 95.788 116.508 96.677 116.974 97.4521C117.44 98.2271 118.112 98.858 118.915 99.2748C119.718 99.6917 120.62 99.8781 121.523 99.8137C122.425 99.7492 123.292 99.4363 124.027 98.9095C124.762 98.3828 125.337 97.6628 125.689 96.8293C125.771 96.6326 125.921 96.472 126.112 96.3766C126.303 96.2812 126.522 96.2575 126.728 96.3096L129.339 96.9555Z" fill="#BAB2B2" stroke="#575757" stroke-width="1.5" stroke-linecap="round" stroke-linejoin="round"/>
<path d="M107.807 100.072C107.807 101.489 108.37 102.849 109.372 103.852C110.375 104.854 111.735 105.418 113.153 105.418C114.57 105.418 115.93 104.854 116.933 103.852C117.935 102.849 118.499 101.489 118.499 100.072C118.499 98.6537 117.935 97.294 116.933 96.2914C115.93 95.2888 114.57 94.7256 113.153 94.7256C111.735 94.7256 110.375 95.2888 109.372 96.2914C108.37 97.294 107.807 98.6537 107.807 100.072Z" fill="white" stroke="#575757" stroke-width="1.5" stroke-linecap="round" stroke-linejoin="round"/>
<path d="M92.894 111.026L92.9846 84.2959L100.113 84.3211L100.024 111.051L92.894 111.026Z" fill="#BAB2B2" stroke="#575757" stroke-width="1.5" stroke-linecap="round" stroke-linejoin="round"/>
<path d="M46.1162 110.426L51.2083 84.186L58.2056 85.5433L53.1135 111.783L46.1162 110.426Z" fill="white" stroke="#575757" stroke-width="1.5" stroke-linecap="round" stroke-linejoin="round"/>
<path d="M92.894 111.026L92.9846 84.2959L100.113 84.3211L100.024 111.051L92.894 111.026Z" stroke="#575757" stroke-width="1.5" stroke-linecap="round" stroke-linejoin="round"/>
<path d="M46.1162 110.426L51.2083 84.186L58.2056 85.5433L53.1135 111.783L46.1162 110.426Z" fill="#BAB2B2" stroke="#575757" stroke-width="1.5" stroke-linecap="round" stroke-linejoin="round"/>
<path d="M91.772 109.18C91.772 109.882 91.9103 110.577 92.1789 111.226C92.4476 111.874 92.8414 112.464 93.3378 112.96C93.8342 113.457 94.4235 113.85 95.0721 114.119C95.7208 114.388 96.4159 114.526 97.118 114.526C97.82 114.526 98.5152 114.388 99.1638 114.119C99.8124 113.85 100.402 113.457 100.898 112.96C101.395 112.464 101.788 111.874 102.057 111.226C102.326 110.577 102.464 109.882 102.464 109.18C102.464 107.762 101.901 106.402 100.898 105.4C99.8956 104.397 98.5358 103.834 97.118 103.834C95.7001 103.834 94.3403 104.397 93.3378 105.4C92.3352 106.402 91.772 107.762 91.772 109.18Z" fill="white" stroke="#575757" stroke-width="1.5" stroke-linecap="round" stroke-linejoin="round"/>
<path d="M71.7598 70.6934H78.8878V78.5639H71.7598V70.6934Z" fill="#BAB2B2"/>
<path d="M71.7598 70.6934H78.8878V78.5639H71.7598V70.6934Z" stroke="#575757" stroke-width="1.5" stroke-linecap="round" stroke-linejoin="round"/>
<path d="M61.0679 78.564H89.5799V105.294H61.0679V78.564Z" fill="white" stroke="#575757" stroke-width="1.5" stroke-linecap="round" stroke-linejoin="round"/>
<path d="M69.9775 105.294H80.6695V115.986H69.9775V105.294Z" fill="#BAB2B2"/>
<path d="M69.9775 105.294H80.6695V115.986H69.9775V105.294Z" stroke="#575757" stroke-width="1.5" stroke-linecap="round" stroke-linejoin="round"/>
<path d="M82.4518 91.038C82.4518 91.9832 82.0763 92.8897 81.4079 93.5581C80.7395 94.2265 79.833 94.602 78.8878 94.602H71.7598C70.8146 94.602 69.908 94.2265 69.2397 93.5581C68.5713 92.8897 68.1958 91.9832 68.1958 91.038V78.564H82.4518V91.038Z" fill="#BAB2B2"/>
<path d="M80.0727 78.564L68.2046 90.4321V78.564H80.0727Z" fill="white"/>
<path d="M82.4518 91.038C82.4518 91.9832 82.0763 92.8897 81.4079 93.5581C80.7395 94.2265 79.833 94.602 78.8878 94.602H71.7598C70.8146 94.602 69.908 94.2265 69.2397 93.5581C68.5713 92.8897 68.1958 91.9832 68.1958 91.038V78.564H82.4518V91.038Z" stroke="#575757" stroke-width="1.5" stroke-linecap="round" stroke-linejoin="round"/>
<path d="M85.4085 115.986C85.9785 115.987 86.5403 116.123 87.0465 116.386C87.5527 116.648 87.9886 117.028 88.3177 117.493C88.6467 117.959 88.8593 118.496 88.9376 119.061C89.0159 119.626 88.9576 120.201 88.7675 120.738C87.7864 123.52 85.9664 125.93 83.5584 127.634C81.1504 129.338 78.2731 130.253 75.3231 130.253C72.3731 130.253 69.4957 129.338 67.0878 127.634C64.6798 125.93 62.8598 123.52 61.8786 120.738C61.6885 120.201 61.6302 119.625 61.7087 119.06C61.7871 118.495 61.9999 117.957 62.3294 117.492C62.6588 117.026 63.0951 116.647 63.6017 116.385C64.1083 116.123 64.6703 115.986 65.2407 115.986H85.4085Z" fill="white" stroke="#575757" stroke-width="1.5" stroke-linecap="round" stroke-linejoin="round"/>
<path d="M89.9985 88.206C89.86 88.5708 89.7948 88.9593 89.8065 89.3493C89.8182 89.7392 89.9067 90.1231 90.0668 90.4789C90.2269 90.8347 90.4555 91.1555 90.7396 91.4229C91.0237 91.6903 91.3578 91.8991 91.7226 92.0373L95.6103 93.5119C96.2668 93.761 96.966 93.8782 97.6678 93.857C98.3696 93.8358 99.0604 93.6765 99.7006 93.3883C100.341 93.1001 100.918 92.6886 101.399 92.1773C101.881 91.666 102.256 91.0648 102.505 90.4083L103.136 88.7421C103.639 87.4166 103.594 85.9458 103.013 84.6531C102.431 83.3604 101.36 82.3517 100.034 81.8487L96.7018 80.585C95.8182 80.2498 94.8376 80.2792 93.9757 80.6669C93.1138 81.0545 92.4412 81.7686 92.1057 82.6521L89.9985 88.206Z" fill="white" stroke="#575757" stroke-width="1.5" stroke-linecap="round" stroke-linejoin="round"/>
<path d="M59.8353 88.2312C59.7409 88.6096 59.5728 88.9657 59.3407 89.2792C59.1086 89.5926 58.817 89.8573 58.4826 90.0581C58.1482 90.2589 57.7775 90.3918 57.3917 90.4493C57.0059 90.5068 56.6126 90.4878 56.2342 90.3933L52.2009 89.3835C50.8255 89.0398 49.6428 88.1638 48.9132 86.9482C48.1836 85.7326 47.9667 84.277 48.3102 82.9015L48.7424 81.1729C48.9125 80.4917 49.2152 79.8507 49.6332 79.2865C50.0511 78.7222 50.5761 78.2459 51.1782 77.8846C51.7803 77.5233 52.4476 77.2841 53.1421 77.1808C53.8366 77.0774 54.5447 77.1119 55.2259 77.2822L58.683 78.1465C59.1372 78.2599 59.5647 78.4617 59.9409 78.7403C60.3171 79.019 60.6348 79.369 60.8757 79.7704C61.1166 80.1719 61.2761 80.6169 61.345 81.08C61.4139 81.543 61.3909 82.0152 61.2773 82.4694L59.8353 88.2312Z" fill="white" stroke="#575757" stroke-width="1.5" stroke-linecap="round" stroke-linejoin="round"/>
<path d="M44.4463 107.719C44.4463 109.137 45.0095 110.496 46.0121 111.499C47.0147 112.502 48.3744 113.065 49.7923 113.065C51.2101 113.065 52.5699 112.502 53.5725 111.499C54.575 110.496 55.1383 109.137 55.1383 107.719C55.1383 106.301 54.575 104.941 53.5725 103.939C52.5699 102.936 51.2101 102.373 49.7923 102.373C48.3744 102.373 47.0147 102.936 46.0121 103.939C45.0095 104.941 44.4463 106.301 44.4463 107.719Z" fill="white" stroke="#575757" stroke-width="1.5" stroke-linecap="round" stroke-linejoin="round"/>
<path d="M46.7969 35.2601L96.8711 29.2844L101.567 68.628L51.4924 74.6037L46.7969 35.2601Z" fill="#BAB2B2"/>
<path d="M46.7969 35.2601L96.8711 29.2844L101.567 68.628L51.4924 74.6037L46.7969 35.2601Z" stroke="#575757" stroke-width="1.5" stroke-linecap="round" stroke-linejoin="round"/>
<path d="M64.2263 65.7233C63.9153 65.764 63.5992 65.7234 63.3087 65.6054C63.0181 65.4874 62.7632 65.2961 62.5687 65.0501C62.3742 64.8041 62.2468 64.5119 62.199 64.202C62.1511 63.8921 62.1845 63.5751 62.2958 63.282L70.9533 40.4575C71.0699 40.1501 71.2678 39.8801 71.526 39.6765C71.7842 39.4729 72.0929 39.3434 72.4191 39.3017C72.7452 39.2601 73.0766 39.3079 73.3776 39.4401C73.6787 39.5723 73.9382 39.7838 74.1282 40.0521L88.258 59.9511C88.4392 60.2065 88.5512 60.5044 88.5832 60.8159C88.6151 61.1275 88.5659 61.4419 88.4404 61.7288C88.3148 62.0157 88.1171 62.2651 87.8666 62.453C87.6161 62.6409 87.3212 62.7607 87.0106 62.8008L64.2263 65.7233Z" fill="white"/>
<path d="M64.2263 65.7233C63.9153 65.764 63.5992 65.7234 63.3087 65.6054C63.0181 65.4874 62.7632 65.2961 62.5687 65.0501C62.3742 64.8041 62.2468 64.5119 62.199 64.202C62.1511 63.8921 62.1845 63.5751 62.2958 63.282L70.9533 40.4575C71.0699 40.1501 71.2678 39.8801 71.526 39.6765C71.7842 39.4729 72.0929 39.3434 72.4191 39.3017C72.7452 39.2601 73.0766 39.3079 73.3776 39.4401C73.6787 39.5723 73.9382 39.7838 74.1282 40.0521L88.258 59.9511C88.4392 60.2065 88.5512 60.5044 88.5832 60.8159C88.6151 61.1275 88.5659 61.4419 88.4404 61.7288C88.3148 62.0157 88.1171 62.2651 87.8666 62.453C87.6161 62.6408 87.3212 62.7607 87.0106 62.8008L64.2263 65.7233Z" stroke="#575757" stroke-width="1.5" stroke-linecap="round" stroke-linejoin="round"/>
<path d="M75.2256 55.4146C75.2064 55.5709 75.1356 55.7162 75.0245 55.8278C74.9135 55.9393 74.7684 56.0107 74.6123 56.0306C74.4561 56.0505 74.2978 56.0178 74.1623 55.9378C74.0267 55.8577 73.9218 55.7348 73.8639 55.5884C71.179 48.7856 71.3646 49.2638 71.3498 49.191C71.2793 48.8687 71.2767 48.5352 71.3422 48.2119C71.4076 47.8885 71.5397 47.5824 71.73 47.3129C71.9203 47.0434 72.1647 46.8164 72.4475 46.6466C72.7303 46.4767 73.0454 46.3676 73.3727 46.3262C73.7 46.2848 74.0324 46.312 74.3486 46.4061C74.6648 46.5002 74.958 46.6591 75.2094 46.8727C75.4608 47.0863 75.665 47.35 75.8089 47.6468C75.9528 47.9437 76.0334 48.2673 76.0453 48.597C76.0498 48.6638 76.1092 48.15 75.2256 55.4146Z" fill="#575757"/>
<path d="M77.0124 59.1622C77.0632 59.5601 76.9948 59.9641 76.816 60.3232C76.6372 60.6822 76.3559 60.9802 76.0078 61.1795C75.6596 61.3787 75.2602 61.4703 74.86 61.4426C74.4599 61.4148 74.0769 61.2691 73.7595 61.0238C73.4422 60.7784 73.2047 60.4445 73.0771 60.0642C72.9495 59.6839 72.9375 59.2743 73.0426 58.8872C73.1477 58.5001 73.3653 58.1529 73.6677 57.8894C73.9702 57.6259 74.344 57.458 74.7418 57.4069C75.0062 57.373 75.2746 57.3914 75.5318 57.4613C75.7891 57.5311 76.03 57.651 76.2408 57.814C76.4517 57.977 76.6284 58.18 76.7608 58.4113C76.8932 58.6426 76.9787 58.8978 77.0124 59.1622Z" fill="#575757"/>
</svg>
