<svg width="210" height="210" viewBox="0 0 210 210" fill="none" xmlns="http://www.w3.org/2000/svg">
<path d="M108.746 188.159C154.673 188.159 191.906 150.927 191.906 104.999C191.906 59.0722 154.673 21.8394 108.746 21.8394C62.8189 21.8394 25.5861 59.0722 25.5861 104.999C25.5861 150.927 62.8189 188.159 108.746 188.159Z" fill="#D9EDFF"/>
<path d="M107.1 85.5185L96.51 86.2898L97.2834 96.8823L107.874 96.1089L107.1 85.5185Z" fill="#B0D9FF" stroke="#020064" stroke-width="2.1" stroke-linecap="round" stroke-linejoin="round"/>
<path d="M130.746 31.3076L137.353 73.2681C137.517 74.3013 137.476 75.3568 137.231 76.374C136.987 77.3912 136.544 78.3502 135.929 79.1961C135.313 80.042 134.536 80.7581 133.644 81.3034C132.751 81.8487 131.759 82.2126 130.725 82.3741L73.029 91.4593C71.9957 91.6236 70.9402 91.5824 69.9228 91.338C68.9055 91.0937 67.9464 90.6509 67.1005 90.0352C66.2545 89.4195 65.5384 88.6429 64.9932 87.75C64.4479 86.857 64.0842 85.8652 63.923 84.8314L57.3138 42.871C57.1501 41.8376 57.1918 40.7821 57.4365 39.7649C57.6813 38.7476 58.1242 37.7886 58.7401 36.9428C59.3559 36.097 60.1325 35.3809 61.0254 34.8356C61.9183 34.2903 62.9101 33.9265 63.9438 33.765L121.64 24.6797C121.954 24.6298 122.247 24.6111 122.565 24.5862C124.516 24.509 126.427 25.151 127.935 26.3902C129.443 27.6293 130.443 29.3793 130.746 31.3076Z" fill="#B0D9FF"/>
<path d="M22.5397 86.9086C21.3971 85.9486 20.6821 84.5745 20.5515 83.088C20.421 81.6014 20.8855 80.1237 21.8432 78.9793L24.259 76.0978L32.8848 83.3369L30.4731 86.2121C29.513 87.3559 28.1381 88.0717 26.6505 88.2023C25.1629 88.3329 23.6843 87.8676 22.5397 86.9086Z" fill="white"/>
<path d="M22.5397 86.9086C21.3971 85.9486 20.6821 84.5745 20.5515 83.088C20.421 81.6014 20.8855 80.1237 21.8432 78.9793L24.259 76.0978L32.8848 83.3369L30.4731 86.2121C29.513 87.3559 28.1381 88.0717 26.6505 88.2023C25.1629 88.3329 23.6843 87.8676 22.5397 86.9086Z" stroke="#020064" stroke-width="2.1" stroke-linecap="round" stroke-linejoin="round"/>
<path d="M47.1846 48.7873L57.0162 44.5254C57.1762 44.4558 57.3524 44.4323 57.5251 44.4575C57.6978 44.4827 57.86 44.5555 57.9935 44.6679C58.127 44.7802 58.2265 44.9276 58.2808 45.0934C58.3351 45.2592 58.3421 45.4369 58.301 45.6064L55.8062 56.0285L47.1846 48.7873Z" fill="#B0D9FF" stroke="#020064" stroke-width="2.1" stroke-linecap="round" stroke-linejoin="round"/>
<path d="M47.1852 48.7865L27.8796 71.7906L36.5054 79.0318L55.8131 56.0256L47.1852 48.7865Z" fill="white"/>
<path d="M47.1852 48.7865L27.8796 71.7906L36.5054 79.0318L55.8131 56.0256L47.1852 48.7865Z" stroke="#020064" stroke-width="2.1" stroke-linecap="round" stroke-linejoin="round"/>
<path d="M27.8758 71.7939L24.2562 76.1078L32.8841 83.3469L36.5015 79.033L27.8758 71.7939Z" fill="#B0D9FF" stroke="#020064" stroke-width="2.1" stroke-linecap="round" stroke-linejoin="round"/>
<path d="M73.5849 103.69L39.8219 124.803L45.4518 133.805L79.2148 112.692L73.5849 103.69Z" fill="white"/>
<path d="M73.5849 103.69L39.8219 124.803L45.4518 133.805L79.2148 112.692L73.5849 103.69Z" fill="#B0D9FF" stroke="#020064" stroke-width="2.1" stroke-linecap="round" stroke-linejoin="round"/>
<path d="M28.6436 100.801L19.3068 105.859L33.2569 131.62L42.5957 126.564L28.6436 100.801Z" fill="#B0D9FF" stroke="#020064" stroke-width="2.1" stroke-linecap="round" stroke-linejoin="round"/>
<path d="M134.628 102.14L125.925 108.225L148.74 140.861L157.445 134.778L134.628 102.14Z" fill="#B0D9FF"/>
<path d="M134.628 102.14L125.925 108.225L148.74 140.861L157.445 134.778L134.628 102.14Z" stroke="#020064" stroke-width="2.1" stroke-linecap="round" stroke-linejoin="round"/>
<path d="M35.5203 85.5575C35.7051 85.5401 35.8914 85.5615 36.0674 85.6204C36.2434 85.6793 36.4051 85.7744 36.5421 85.8995C36.6792 86.0246 36.7886 86.177 36.8632 86.3469C36.9379 86.5168 36.9762 86.7004 36.9756 86.886C36.9635 89.5151 36.2075 92.0872 34.7951 94.3048C33.3827 96.5224 31.3715 98.2949 28.994 99.4175C26.6165 100.54 23.9698 100.967 21.36 100.649C18.7501 100.33 16.2837 99.2798 14.2457 97.6186C12.2078 95.9575 10.6816 93.7534 9.84363 91.2614C9.00565 88.7693 8.89008 86.0909 9.51029 83.5359C10.1305 80.9809 11.4612 78.6536 13.3484 76.8231C15.2357 74.9926 17.6025 73.7336 20.1752 73.1916C20.3574 73.154 20.5454 73.155 20.7272 73.1945C20.9089 73.2341 21.0804 73.3113 21.2304 73.4212C21.3805 73.5311 21.5058 73.6713 21.5984 73.8326C21.6909 73.9939 21.7486 74.1729 21.7678 74.3579L22.1732 78.3517C22.2053 78.6665 22.1239 78.9824 21.9435 79.2424C21.7632 79.5024 21.4959 79.6894 21.1898 79.7696C19.8861 80.1108 18.7023 80.8063 17.7695 81.779C16.8368 82.7517 16.1915 83.9636 15.9053 85.2805C15.619 86.5974 15.7029 87.9678 16.1476 89.24C16.5923 90.5121 17.3806 91.6363 18.425 92.488C19.4694 93.3396 20.7292 93.8856 22.0648 94.0653C23.4004 94.2449 24.7597 94.0514 25.992 93.506C27.2244 92.9606 28.2817 92.0847 29.0468 90.9753C29.812 89.866 30.2551 88.5664 30.327 87.2207C30.343 86.9045 30.4721 86.6045 30.6908 86.3755C30.9094 86.1466 31.2031 86.0038 31.5183 85.9733L35.5203 85.5575Z" fill="#B0D9FF"/>
<path d="M35.5203 85.5575C35.7051 85.5401 35.8914 85.5615 36.0674 85.6204C36.2434 85.6793 36.4051 85.7744 36.5421 85.8995C36.6792 86.0246 36.7886 86.177 36.8632 86.3469C36.9379 86.5168 36.9762 86.7004 36.9756 86.886C36.9635 89.5151 36.2075 92.0872 34.7951 94.3048C33.3827 96.5224 31.3715 98.2949 28.994 99.4175C26.6165 100.54 23.9698 100.967 21.36 100.649C18.7501 100.33 16.2837 99.2798 14.2457 97.6186C12.2078 95.9575 10.6816 93.7534 9.84363 91.2614C9.00565 88.7693 8.89008 86.0909 9.51029 83.5359C10.1305 80.9809 11.4612 78.6536 13.3484 76.8231C15.2357 74.9926 17.6025 73.7336 20.1752 73.1916C20.3574 73.154 20.5454 73.155 20.7272 73.1945C20.9089 73.2341 21.0804 73.3113 21.2304 73.4212C21.3805 73.5311 21.5058 73.6713 21.5984 73.8326C21.6909 73.9939 21.7486 74.1729 21.7678 74.3579L22.1732 78.3517C22.2053 78.6665 22.1239 78.9824 21.9435 79.2424C21.7632 79.5024 21.4959 79.6894 21.1898 79.7696C19.8861 80.1108 18.7023 80.8063 17.7695 81.779C16.8368 82.7517 16.1915 83.9636 15.9053 85.2805C15.619 86.5974 15.7029 87.9678 16.1476 89.2399C16.5923 90.5121 17.3806 91.6363 18.425 92.488C19.4694 93.3396 20.7292 93.8856 22.0648 94.0653C23.4004 94.2449 24.7597 94.0514 25.992 93.506C27.2244 92.9606 28.2817 92.0847 29.0468 90.9753C29.812 89.866 30.2551 88.5664 30.327 87.2207C30.343 86.9045 30.4721 86.6045 30.6908 86.3755C30.9094 86.1466 31.2031 86.0038 31.5183 85.9733L35.5203 85.5575Z" stroke="#020064" stroke-width="2.1" stroke-linecap="round" stroke-linejoin="round"/>
<path d="M121.643 24.6805L63.9467 33.7658C62.9133 33.9281 61.922 34.2924 61.0295 34.8379C60.137 35.3834 59.3607 36.0995 58.745 36.9451C58.1293 37.7908 57.6863 38.7494 57.4412 39.7663C57.1962 40.7833 57.1538 41.8385 57.3167 42.8718L63.9259 84.8322C64.0884 85.8655 64.4529 86.8566 64.9985 87.749C65.5441 88.6413 66.2602 89.4175 67.1057 90.0332C67.9513 90.6488 68.9099 91.0919 69.9267 91.3371C70.9435 91.5823 71.9987 91.6248 73.0319 91.4622L130.728 82.3769C131.761 82.2144 132.753 81.8499 133.645 81.3042C134.537 80.7586 135.313 80.0425 135.929 79.1969C136.544 78.3513 136.987 77.3927 137.232 76.3759C137.477 75.3591 137.519 74.304 137.356 73.2709L130.749 31.3084C130.42 29.222 129.276 27.3517 127.569 26.1088C125.861 24.8659 123.729 24.3521 121.643 24.6805Z" stroke="#020064" stroke-width="2.1" stroke-linecap="round" stroke-linejoin="round"/>
<path d="M122.565 24.5873L73.9999 91.3086L73.029 91.4604C71.9957 91.6247 70.9402 91.5835 69.9228 91.3391C68.9055 91.0948 67.9464 90.652 67.1005 90.0363C66.2545 89.4206 65.5384 88.644 64.9932 87.7511C64.4479 86.8581 64.0842 85.8663 63.923 84.8325L57.3138 42.8721C57.1501 41.8387 57.1918 40.7832 57.4365 39.766C57.6813 38.7487 58.1242 37.7897 58.7401 36.9439C59.3559 36.0981 60.1325 35.382 61.0254 34.8367C61.9183 34.2914 62.9101 33.9276 63.9438 33.7661L121.64 24.6808C121.954 24.6309 122.253 24.6122 122.565 24.5873Z" fill="white"/>
<path d="M130.746 31.3076L137.353 73.268C137.517 74.3013 137.476 75.3568 137.231 76.374C136.987 77.3912 136.544 78.3502 135.929 79.1961C135.313 80.042 134.536 80.7581 133.644 81.3034C132.751 81.8487 131.759 82.2126 130.725 82.3741L73.029 91.4593C71.9957 91.6236 70.9402 91.5824 69.9228 91.338C68.9055 91.0937 67.9464 90.6509 67.1005 90.0352C66.2545 89.4195 65.5384 88.6429 64.9932 87.75C64.4479 86.857 64.0842 85.8652 63.923 84.8314L57.3138 42.871C57.1501 41.8376 57.1918 40.7821 57.4365 39.7649C57.6813 38.7476 58.1242 37.7886 58.7401 36.9428C59.3559 36.097 60.1325 35.3809 61.0254 34.8356C61.9183 34.2903 62.9101 33.9265 63.9438 33.765L121.64 24.6797C121.954 24.6298 122.247 24.6111 122.565 24.5862C124.516 24.509 126.427 25.151 127.935 26.3902C129.443 27.6293 130.443 29.3793 130.746 31.3076Z" stroke="#020064" stroke-width="2.1" stroke-linecap="round" stroke-linejoin="round"/>
<path d="M115.803 95.4606L89.333 97.4003C87.2271 97.5545 85.2686 98.539 83.8884 100.137C82.5083 101.735 81.8194 103.816 81.9734 105.922L83.7197 129.743C83.874 131.849 84.8582 133.807 86.4558 135.187C88.0535 136.567 90.1338 137.256 92.2395 137.103L118.709 135.165C119.752 135.089 120.77 134.808 121.704 134.338C122.639 133.868 123.471 133.219 124.155 132.428C124.838 131.636 125.359 130.718 125.687 129.725C126.016 128.732 126.145 127.684 126.069 126.641L124.323 102.82C124.168 100.715 123.184 98.7566 121.586 97.3764C119.989 95.9963 117.908 95.3072 115.803 95.4606Z" fill="white" stroke="#020064" stroke-width="2.1" stroke-linecap="round" stroke-linejoin="round"/>
<path d="M82.7554 116.573L72.1629 117.346C70.056 117.501 67.9737 116.814 66.3735 115.435C64.7732 114.055 63.786 112.097 63.6286 109.991L63.4352 107.344C63.2819 105.237 63.9714 103.156 65.3523 101.557C66.7332 99.959 68.6924 98.9744 70.799 98.8201L76.0943 98.4355C76.7895 98.3839 77.4881 98.4698 78.1502 98.6883C78.8123 98.9067 79.4248 99.2535 79.9529 99.7087C80.4809 100.164 80.914 100.719 81.2276 101.341C81.5412 101.964 81.729 102.643 81.7803 103.338L82.7554 116.573Z" fill="white" stroke="#020064" stroke-width="2.1" stroke-linecap="round" stroke-linejoin="round"/>
<path d="M114.87 157.041L98.9819 158.199L97.5308 136.789L113.416 135.631L114.87 157.041Z" fill="#B0D9FF"/>
<path d="M114.87 157.041L98.9819 158.199L97.5308 136.789L113.416 135.631L114.87 157.041Z" stroke="#020064" stroke-width="2.1" stroke-linecap="round" stroke-linejoin="round"/>
<path d="M114.521 114.256C114.623 115.66 114.164 117.048 113.243 118.113C112.323 119.178 111.017 119.835 109.613 119.938L99.01 120.709C97.6091 120.809 96.2257 120.349 95.1628 119.431C94.0998 118.513 93.4439 117.212 93.3385 115.811L91.9872 97.2748L113.17 95.7301L114.521 114.256Z" fill="#B0D9FF"/>
<path d="M109.634 95.9766L93.2852 114.898L91.9983 97.2635L109.634 95.9766Z" fill="white"/>
<path d="M114.521 114.256C114.623 115.66 114.164 117.048 113.243 118.113C112.323 119.178 111.017 119.835 109.613 119.938L99.01 120.709C97.6091 120.809 96.2257 120.349 95.1628 119.431C94.0998 118.513 93.4439 117.212 93.3385 115.811L91.9872 97.2748L113.17 95.7301L114.521 114.256Z" stroke="#020064" stroke-width="2.1" stroke-linecap="round" stroke-linejoin="round"/>
<path d="M38.3953 138.96C40.5077 138.96 42.5335 138.121 44.0272 136.627C45.5208 135.133 46.36 133.107 46.36 130.995C46.36 128.883 45.5208 126.857 44.0272 125.363C42.5335 123.869 40.5077 123.03 38.3953 123.03C36.283 123.03 34.2571 123.869 32.7635 125.363C31.2698 126.857 30.4307 128.883 30.4307 130.995C30.4307 133.107 31.2698 135.133 32.7635 136.627C34.2571 138.121 36.283 138.96 38.3953 138.96Z" fill="white" stroke="#020064" stroke-width="2.1" stroke-linecap="round" stroke-linejoin="round"/>
<path d="M22.905 107.602C25.0173 107.602 27.0432 106.763 28.5368 105.269C30.0305 103.776 30.8696 101.75 30.8696 99.6373C30.8696 97.525 30.0305 95.4991 28.5368 94.0055C27.0432 92.5118 25.0173 91.6727 22.905 91.6727C20.7926 91.6727 18.7668 92.5118 17.2731 94.0055C15.7794 95.4991 14.9403 97.525 14.9403 99.6373C14.9403 101.75 15.7794 103.776 17.2731 105.269C18.7668 106.763 20.7926 107.602 22.905 107.602Z" fill="white" stroke="#020064" stroke-width="2.1" stroke-linecap="round" stroke-linejoin="round"/>
<path d="M122.083 156.513C122.93 156.452 123.78 156.595 124.56 156.93C125.341 157.266 126.03 157.783 126.569 158.439C127.109 159.096 127.483 159.872 127.66 160.702C127.838 161.533 127.814 162.394 127.59 163.214C126.429 167.45 123.984 171.223 120.591 174.013C117.197 176.802 113.023 178.471 108.642 178.79C104.261 179.11 99.8882 178.063 96.1265 175.795C92.3647 173.526 89.3984 170.148 87.6359 166.124C87.2955 165.347 87.1466 164.499 87.2016 163.652C87.2566 162.805 87.5138 161.983 87.9518 161.256C88.3898 160.529 88.9958 159.917 89.7189 159.472C90.442 159.028 91.2612 158.763 92.1078 158.7L122.083 156.513Z" fill="white" stroke="#020064" stroke-width="2.1" stroke-linecap="round" stroke-linejoin="round"/>
<path d="M125.151 113.476L135.744 112.702C136.787 112.626 137.805 112.345 138.74 111.876C139.674 111.406 140.507 110.757 141.191 109.966C141.875 109.174 142.396 108.256 142.725 107.263C143.054 106.27 143.184 105.222 143.108 104.178L142.914 101.53C142.838 100.486 142.558 99.4683 142.088 98.5335C141.619 97.5987 140.97 96.7656 140.178 96.0818C139.387 95.3979 138.468 94.8767 137.475 94.548C136.482 94.2193 135.434 94.0895 134.39 94.166L129.093 94.5527C127.689 94.6559 126.383 95.3123 125.463 96.3777C124.542 97.4431 124.083 98.8304 124.185 100.235L125.151 113.476Z" fill="white" stroke="#020064" stroke-width="2.1" stroke-linecap="round" stroke-linejoin="round"/>
<path d="M162.384 110.856L149.461 137.149L158.993 141.833L171.914 115.54L162.384 110.856Z" fill="#B0D9FF" stroke="#020064" stroke-width="2.1" stroke-linecap="round" stroke-linejoin="round"/>
<path d="M152.895 148.555C155.007 148.555 157.033 147.716 158.527 146.222C160.021 144.729 160.86 142.703 160.86 140.59C160.86 138.478 160.021 136.452 158.527 134.959C157.033 133.465 155.007 132.626 152.895 132.626C150.783 132.626 148.757 133.465 147.263 134.959C145.77 136.452 144.93 138.478 144.93 140.59C144.93 142.703 145.77 144.729 147.263 146.222C148.757 147.716 150.783 148.555 152.895 148.555Z" fill="white" stroke="#020064" stroke-width="2.1" stroke-linecap="round" stroke-linejoin="round"/>
<path d="M77.7914 68.5637C76.9629 68.6185 76.1437 68.3626 75.4937 67.8459C74.8436 67.3293 74.4095 66.589 74.2758 65.7695C73.8266 63.1641 74.1474 60.4842 75.1989 58.0585C75.6974 56.8376 76.4931 55.7607 77.5137 54.9256C78.5344 54.0905 79.7475 53.5237 81.0429 53.2768C81.2363 53.2456 81.4317 53.2227 81.6271 53.2082C86.2134 52.8735 90.3818 57.1188 91.3215 63.0793C91.4562 63.9485 91.2411 64.8357 90.7233 65.5468C90.2055 66.2578 89.4272 66.7348 88.5585 66.8735L88.282 66.9067C87.4533 66.9615 86.6338 66.7057 85.9834 66.1891C85.3331 65.6725 84.8985 64.9322 84.7644 64.1125C84.3049 61.2019 82.6854 59.7882 82.0866 59.8319C81.9057 59.8589 81.5419 60.1479 81.2259 60.8319C80.7265 62.068 80.5894 63.4209 80.8309 64.7321C80.9656 65.601 80.7508 66.4879 80.2334 67.1989C79.7161 67.9099 78.9382 68.3872 78.07 68.5263L77.7914 68.5637Z" fill="white" stroke="#020064" stroke-width="2.1" stroke-miterlimit="10"/>
<path d="M109.263 63.6046C108.434 63.6623 107.614 63.4078 106.963 62.891C106.313 62.3743 105.879 61.6328 105.747 60.8125C105.298 58.2071 105.619 55.5272 106.671 53.1015C107.169 51.8805 107.965 50.8034 108.985 49.9683C110.006 49.1332 111.219 48.5665 112.515 48.3198C112.708 48.2885 112.902 48.2663 113.097 48.2532C117.685 47.9185 121.853 52.1618 122.793 58.1223C122.928 58.9912 122.713 59.8781 122.196 60.5891C121.678 61.3001 120.901 61.7773 120.032 61.9164L119.756 61.9497C118.927 62.005 118.107 61.7493 117.457 61.2327C116.806 60.716 116.372 59.9754 116.238 59.1555C115.777 56.2449 114.159 54.8312 113.56 54.8749C113.379 54.9019 113.014 55.1909 112.698 55.8749C112.198 57.111 112.061 58.4639 112.303 59.7751C112.437 60.644 112.222 61.5309 111.705 62.2419C111.188 62.9529 110.41 63.4301 109.542 63.5692L109.263 63.6046Z" fill="white" stroke="#020064" stroke-width="2.1" stroke-miterlimit="10"/>
<path d="M195.929 67.5201C195.877 66.7984 195.682 66.0941 195.357 65.4476C195.032 64.801 194.583 64.2249 194.036 63.7521C193.488 63.2792 192.852 62.9189 192.165 62.6919C191.478 62.4648 190.753 62.3753 190.031 62.4286L183.137 62.9317C176.772 63.3953 170.489 64.6365 164.426 66.6323L162.763 67.177L161.046 66.8776C154.758 65.7842 148.36 65.4658 141.994 65.9296L135.1 66.4327C134.379 66.4852 133.675 66.6792 133.028 67.0038C132.382 67.3285 131.806 67.7773 131.333 68.3247C130.86 68.872 130.5 69.5072 130.273 70.1939C130.045 70.8806 129.956 71.6053 130.009 72.3267L131.819 97.0439C131.926 98.5009 132.606 99.8559 133.712 100.811C134.817 101.766 136.256 102.243 137.713 102.137L144.609 101.634C150.974 101.171 157.372 101.489 163.659 102.582L165.379 102.88L167.042 102.335C173.104 100.341 179.388 99.0982 185.753 98.6344L192.647 98.1312C194.101 98.0212 195.452 97.3389 196.404 96.2339C197.356 95.129 197.83 93.6917 197.724 92.2373L195.929 67.5201Z" fill="#B0D9FF" stroke="#020064" stroke-width="2.1" stroke-linecap="round" stroke-linejoin="round"/>
<path d="M163.028 108.572L161.31 108.272C155.022 107.179 148.624 106.86 142.259 107.324L135.365 107.827C133.908 107.933 132.469 107.456 131.364 106.502C130.258 105.547 129.578 104.192 129.471 102.736L127.66 78.0165C127.607 77.2951 127.697 76.5703 127.924 75.8836C128.151 75.1969 128.512 74.5618 128.985 74.0146C129.458 73.4674 130.034 73.0188 130.681 72.6945C131.328 72.3702 132.032 72.1765 132.753 72.1246L139.647 71.6215C146.012 71.1577 152.41 71.476 158.697 72.5696L160.417 72.8669L163.028 108.572Z" fill="white" stroke="#020064" stroke-width="2.1" stroke-linecap="round" stroke-linejoin="round"/>
<path d="M168.522 108.173L170.185 107.628C176.247 105.634 182.531 104.391 188.896 103.928L195.79 103.424C197.247 103.318 198.602 102.637 199.557 101.532C200.512 100.427 200.989 98.9874 200.883 97.5305L199.081 72.8132C198.975 71.3563 198.294 70.0013 197.189 69.0461C196.083 68.0909 194.644 67.6138 193.187 67.7197L186.289 68.2228C179.924 68.6874 173.64 69.931 167.578 71.9255L165.915 72.4702L168.522 108.173Z" fill="white" stroke="#020064" stroke-width="2.1" stroke-linecap="round" stroke-linejoin="round"/>
<path d="M165.913 72.467L160.421 72.8683L163.026 108.571L168.518 108.17L165.913 72.467Z" fill="white" stroke="#020064" stroke-width="2.1" stroke-linecap="round" stroke-linejoin="round"/>
<path d="M191.438 81.6499C191.491 82.3782 191.252 83.0976 190.775 83.65C190.297 84.2024 189.62 84.5426 188.891 84.5958L177.906 85.3983C177.189 85.4313 176.487 85.1832 175.951 84.7067C175.414 84.2302 175.084 83.5631 175.032 82.8472C174.98 82.1314 175.209 81.4234 175.671 80.874C176.132 80.3246 176.79 79.9771 177.505 79.9056L188.49 79.1031C188.851 79.0767 189.213 79.1217 189.557 79.2354C189.9 79.3491 190.218 79.5294 190.492 79.7659C190.765 80.0024 190.99 80.2905 191.152 80.6137C191.315 80.937 191.412 81.2891 191.438 81.6499Z" fill="#B0D9FF"/>
<path d="M172.227 87.0134C172.345 86.8608 172.494 86.7347 172.664 86.6432C172.834 86.5517 173.021 86.497 173.213 86.4825C173.406 86.468 173.599 86.4941 173.781 86.559C173.963 86.624 174.129 86.7264 174.268 86.8596C176.243 88.744 177.644 91.1489 178.309 93.7962C178.974 96.4434 178.877 99.2249 178.027 101.819C177.177 104.413 175.611 106.713 173.508 108.454C171.406 110.195 168.854 111.305 166.147 111.656C163.44 112.007 160.689 111.585 158.212 110.438C155.735 109.291 153.634 107.466 152.151 105.175C150.668 102.883 149.863 100.219 149.831 97.4893C149.799 94.76 150.54 92.0773 151.969 89.7515C152.071 89.5875 152.206 89.4466 152.365 89.3379C152.524 89.2292 152.705 89.155 152.894 89.1201C153.084 89.0853 153.279 89.0905 153.467 89.1355C153.654 89.1805 153.83 89.2643 153.984 89.3814L157.281 91.922C157.541 92.1221 157.721 92.4088 157.789 92.7302C157.856 93.0516 157.807 93.3866 157.649 93.6746C156.976 94.9006 156.656 96.2889 156.723 97.6858C156.791 99.0827 157.244 100.433 158.033 101.589C158.821 102.744 159.914 103.658 161.19 104.23C162.466 104.802 163.876 105.01 165.263 104.83C166.65 104.65 167.96 104.089 169.048 103.21C170.136 102.332 170.959 101.169 171.426 99.8507C171.894 98.5326 171.987 97.1109 171.696 95.7429C171.405 94.375 170.741 93.1144 169.778 92.1008C169.551 91.8631 169.417 91.5521 169.4 91.2241C169.383 90.8961 169.484 90.5729 169.684 90.3128L172.227 87.0134Z" fill="#B0D9FF"/>
<path d="M172.227 87.0134C172.345 86.8608 172.494 86.7347 172.664 86.6432C172.834 86.5517 173.021 86.497 173.213 86.4825C173.406 86.468 173.599 86.4941 173.781 86.559C173.963 86.624 174.129 86.7264 174.268 86.8596C176.243 88.744 177.644 91.1489 178.309 93.7962C178.974 96.4434 178.877 99.2249 178.027 101.819C177.177 104.413 175.611 106.713 173.508 108.454C171.406 110.195 168.854 111.305 166.147 111.656C163.44 112.007 160.689 111.585 158.212 110.438C155.735 109.291 153.634 107.466 152.151 105.175C150.668 102.883 149.863 100.219 149.831 97.4893C149.799 94.76 150.54 92.0773 151.969 89.7515C152.071 89.5875 152.206 89.4466 152.365 89.3379C152.524 89.2292 152.705 89.155 152.894 89.1201C153.084 89.0853 153.279 89.0905 153.467 89.1355C153.654 89.1805 153.83 89.2643 153.984 89.3814L157.281 91.922C157.541 92.1221 157.721 92.4088 157.789 92.7302C157.856 93.0516 157.807 93.3866 157.649 93.6746C156.976 94.9006 156.656 96.2889 156.723 97.6858C156.791 99.0827 157.244 100.433 158.033 101.589C158.821 102.744 159.914 103.658 161.19 104.23C162.466 104.802 163.876 105.01 165.263 104.83C166.65 104.65 167.96 104.089 169.048 103.21C170.136 102.332 170.959 101.169 171.426 99.8507C171.894 98.5326 171.987 97.1109 171.696 95.7429C171.405 94.375 170.741 93.1144 169.778 92.1008C169.551 91.8631 169.417 91.5521 169.4 91.2241C169.383 90.8961 169.484 90.5729 169.684 90.3128L172.227 87.0134Z" stroke="#020064" stroke-width="2.1" stroke-linecap="round" stroke-linejoin="round"/>
<path d="M167.305 118.645C168.39 118.645 169.464 118.432 170.467 118.017C171.469 117.601 172.38 116.993 173.147 116.226C173.914 115.458 174.523 114.548 174.938 113.545C175.353 112.543 175.567 111.468 175.567 110.384C175.567 109.299 175.353 108.224 174.938 107.222C174.523 106.219 173.914 105.309 173.147 104.541C172.38 103.774 171.469 103.166 170.467 102.75C169.464 102.335 168.39 102.122 167.305 102.122C165.114 102.122 163.012 102.992 161.463 104.541C159.914 106.091 159.043 108.192 159.043 110.384C159.043 112.575 159.914 114.676 161.463 116.226C163.012 117.775 165.114 118.645 167.305 118.645Z" fill="white" stroke="#020064" stroke-width="2.1" stroke-linecap="round" stroke-linejoin="round"/>
</svg>
