<svg width="110" height="70" viewBox="0 0 110 70" fill="none" xmlns="http://www.w3.org/2000/svg">
<g clip-path="url(#clip0_456_19719)">
<path d="M104.526 49.5495V47.9339C104.526 47.5054 104.355 47.0944 104.052 46.7914C103.75 46.4885 103.339 46.3182 102.91 46.3182C102.482 46.3182 102.071 46.4885 101.768 46.7914C101.465 47.0944 101.294 47.5054 101.294 47.9339V47.126C101.265 46.719 101.082 46.3383 100.783 46.0605C100.484 45.7826 100.091 45.6282 99.6831 45.6282C99.275 45.6282 98.882 45.7826 98.5831 46.0605C98.2842 46.3383 98.1015 46.719 98.0718 47.126V47.9339C98.042 47.5268 97.8594 47.1462 97.5605 46.8683C97.2616 46.5904 96.8686 46.436 96.4605 46.436C96.0524 46.436 95.6594 46.5904 95.3605 46.8683C95.0616 47.1462 94.8789 47.5268 94.8491 47.9339V53.5714C94.4252 53.5714 94.0054 53.655 93.6139 53.8175C93.2223 53.98 92.8667 54.2181 92.5673 54.5183C92.268 54.8185 92.0308 55.1747 91.8693 55.5667C91.7079 55.9587 91.6253 56.3787 91.6265 56.8026C91.6275 58.3801 92.1201 59.9181 93.0359 61.2026L94.2132 62.844C94.6605 63.4709 95.251 63.982 95.9355 64.3347C96.6201 64.6875 97.379 64.8717 98.1491 64.8721H102.266C102.989 64.8733 103.705 64.7318 104.373 64.4559C105.041 64.1801 105.649 63.7751 106.16 63.2643C106.672 62.7534 107.078 62.1467 107.355 61.4789C107.632 60.811 107.774 60.0951 107.774 59.3721V49.5495C107.79 49.328 107.761 49.1055 107.687 48.896C107.613 48.6865 107.497 48.4944 107.346 48.3317C107.195 48.1691 107.012 48.0393 106.808 47.9506C106.605 47.8619 106.385 47.8161 106.163 47.8161C105.941 47.8161 105.721 47.8619 105.517 47.9506C105.314 48.0393 105.131 48.1691 104.979 48.3317C104.828 48.4944 104.712 48.6865 104.639 48.896C104.565 49.1055 104.535 49.328 104.551 49.5495H104.526Z" stroke="#B3C4FF" stroke-width="1.83333" stroke-linecap="round" stroke-linejoin="round"/>
<path d="M94.8491 53.5712V55.9946" stroke="#B3C4FF" stroke-width="1.83333" stroke-linecap="round" stroke-linejoin="round"/>
<path d="M98.0718 51.9647V47.9342" stroke="#B3C4FF" stroke-width="1.83333" stroke-linecap="round" stroke-linejoin="round"/>
<path d="M101.294 51.9647V47.9342" stroke="#B3C4FF" stroke-width="1.83333" stroke-linecap="round" stroke-linejoin="round"/>
<path d="M104.526 51.9639V49.5491" stroke="#B3C4FF" stroke-width="1.83333" stroke-linecap="round" stroke-linejoin="round"/>
</g>
<g clip-path="url(#clip1_456_19719)">
<path d="M5.47418 49.5495V47.9339C5.47418 47.5054 5.6444 47.0944 5.94739 46.7914C6.25038 46.4885 6.66132 46.3182 7.08981 46.3182C7.5183 46.3182 7.92924 46.4885 8.23223 46.7914C8.53522 47.0944 8.70543 47.5054 8.70543 47.9339V47.126C8.73518 46.719 8.91785 46.3383 9.21676 46.0605C9.51567 45.7826 9.90865 45.6282 10.3168 45.6282C10.7249 45.6282 11.1179 45.7826 11.4168 46.0605C11.7157 46.3383 11.8983 46.719 11.9281 47.126V47.9339C11.9578 47.5268 12.1405 47.1462 12.4394 46.8683C12.7383 46.5904 13.1313 46.436 13.5394 46.436C13.9475 46.436 14.3405 46.5904 14.6394 46.8683C14.9383 47.1462 15.121 47.5268 15.1507 47.9339V53.5714C15.5747 53.5714 15.9944 53.655 16.386 53.8175C16.7775 53.98 17.1332 54.2181 17.4326 54.5183C17.7319 54.8185 17.9691 55.1747 18.1306 55.5667C18.292 55.9587 18.3745 56.3787 18.3734 56.8026C18.3724 58.3801 17.8797 59.9181 16.964 61.2026L15.7867 62.844C15.3394 63.4709 14.7489 63.982 14.0643 64.3347C13.3798 64.6875 12.6209 64.8717 11.8507 64.8721H7.73434C7.01135 64.8733 6.29522 64.7318 5.62694 64.4559C4.95866 64.1801 4.35133 63.7751 3.83969 63.2643C3.32806 62.7534 2.92217 62.1467 2.64523 61.4789C2.36829 60.811 2.22574 60.0951 2.22575 59.3721V49.5495C2.20956 49.328 2.23921 49.1055 2.31285 48.896C2.3865 48.6865 2.50255 48.4944 2.65375 48.3317C2.80496 48.1691 2.98808 48.0393 3.19168 47.9506C3.39528 47.8619 3.61499 47.8161 3.83707 47.8161C4.05916 47.8161 4.27886 47.8619 4.48246 47.9506C4.68606 48.0393 4.86918 48.1691 5.02039 48.3317C5.1716 48.4944 5.28765 48.6865 5.36129 48.896C5.43493 49.1055 5.46459 49.328 5.4484 49.5495H5.47418Z" stroke="#B3C4FF" stroke-width="1.83333" stroke-linecap="round" stroke-linejoin="round"/>
<path d="M15.1508 53.5712V55.9946" stroke="#B3C4FF" stroke-width="1.83333" stroke-linecap="round" stroke-linejoin="round"/>
<path d="M11.9281 51.9647V47.9342" stroke="#B3C4FF" stroke-width="1.83333" stroke-linecap="round" stroke-linejoin="round"/>
<path d="M8.70544 51.9647V47.9342" stroke="#B3C4FF" stroke-width="1.83333" stroke-linecap="round" stroke-linejoin="round"/>
<path d="M5.47424 51.9639V49.5491" stroke="#B3C4FF" stroke-width="1.83333" stroke-linecap="round" stroke-linejoin="round"/>
</g>
<g clip-path="url(#clip2_456_19719)">
<path d="M74.3359 26.6562H35.664C32.4998 26.6562 29.9348 29.2213 29.9348 32.3854V61.0312C29.9348 64.1954 32.4998 66.7604 35.664 66.7604H74.3359C77.5 66.7604 80.065 64.1954 80.065 61.0312V32.3854C80.065 29.2213 77.5 26.6562 74.3359 26.6562Z" stroke="#B3C4FF" stroke-width="4.29688" stroke-linecap="round" stroke-linejoin="round"/>
<path d="M22.7734 40.9791V53.8698" stroke="#B3C4FF" stroke-width="4.29688" stroke-linecap="round" stroke-linejoin="round"/>
<path d="M87.2266 40.9791V53.8698" stroke="#B3C4FF" stroke-width="4.29688" stroke-linecap="round" stroke-linejoin="round"/>
<path d="M43.5417 51.0052C45.9148 51.0052 47.8386 49.0815 47.8386 46.7084C47.8386 44.3353 45.9148 42.4115 43.5417 42.4115C41.1686 42.4115 39.2449 44.3353 39.2449 46.7084C39.2449 49.0815 41.1686 51.0052 43.5417 51.0052Z" stroke="#B3C4FF" stroke-width="4.29688" stroke-linecap="round" stroke-linejoin="round"/>
<path d="M66.4583 51.0052C68.8314 51.0052 70.7551 49.0815 70.7551 46.7084C70.7551 44.3353 68.8314 42.4115 66.4583 42.4115C64.0852 42.4115 62.1614 44.3353 62.1614 46.7084C62.1614 49.0815 64.0852 51.0052 66.4583 51.0052Z" stroke="#B3C4FF" stroke-width="4.29688" stroke-linecap="round" stroke-linejoin="round"/>
<path d="M55 26.6562V18.0625" stroke="#B3C4FF" stroke-width="4.29688" stroke-linecap="round" stroke-linejoin="round"/>
<path d="M55.0001 18.0625C58.9552 18.0625 62.1615 14.8562 62.1615 10.9011C62.1615 6.94592 58.9552 3.73962 55.0001 3.73962C51.0449 3.73962 47.8386 6.94592 47.8386 10.9011C47.8386 14.8562 51.0449 18.0625 55.0001 18.0625Z" stroke="#B3C4FF" stroke-width="4.29688" stroke-linecap="round" stroke-linejoin="round"/>
</g>
<defs>
<clipPath id="clip0_456_19719">
<rect width="20.625" height="20.625" fill="white" transform="translate(89.375 44.875)"/>
</clipPath>
<clipPath id="clip1_456_19719">
<rect width="20.625" height="20.625" fill="white" transform="matrix(-1 0 0 1 20.625 44.875)"/>
</clipPath>
<clipPath id="clip2_456_19719">
<rect width="68.75" height="68.75" fill="white" transform="translate(20.625 0.875)"/>
</clipPath>
</defs>
</svg>
