<svg viewBox="0 0 24 24" xmlns="http://www.w3.org/2000/svg"><g transform="matrix(1,0,0,1,0,0)"><path d="M10.5,16.627l-7.544-.575A1.553,1.553,0,0,0,1.447,18.3h0a1.549,1.549,0,0,0,.844.76l10.434,3.913a3,3,0,0,0,2,.037l7.993-2.664" fill="none" stroke="#000000" stroke-linecap="round" stroke-linejoin="round" stroke-width="1.5"></path><path d="M17.47,17.341H11.681a1.332,1.332,0,0,1-1.265-.912h0a1.333,1.333,0,0,1,.914-1.709L17.268,13.1a4.5,4.5,0,0,1,1.924-.1l3.528.588" fill="none" stroke="#000000" stroke-linecap="round" stroke-linejoin="round" stroke-width="1.5"></path><path d="M3.22,12.978V2.341A1.541,1.541,0,0,1,4.8.841H18.141a1.541,1.541,0,0,1,1.579,1.5V9.978" fill="none" stroke="#000000" stroke-linecap="round" stroke-linejoin="round" stroke-width="1.5"></path><path d="M12.97,6.841h-3a.75.75,0,0,1-.75-.75V.841h4.5v5.25A.75.75,0,0,1,12.97,6.841Z" fill="none" stroke="#000000" stroke-linecap="round" stroke-linejoin="round" stroke-width="1.5"></path></g></svg>
