<svg viewBox="-0.75 -0.75 24 24" xmlns="http://www.w3.org/2000/svg" height="24" width="24"><path d="M1.7568750000000002 16.5234375a2.4609375 2.4609375 0 1 0 4.921875 0 2.4609375 2.4609375 0 1 0 -4.921875 0Z" fill="none" stroke="#000000" stroke-linecap="round" stroke-linejoin="round" stroke-width="1.5"></path><path d="M7.733437500000001 21.796875a3.984375 3.984375 0 0 0 -7.03125 0" fill="none" stroke="#000000" stroke-linecap="round" stroke-linejoin="round" stroke-width="1.5"></path><path d="M15.819374999999999 16.5234375a2.4609375 2.4609375 0 1 0 4.921875 0 2.4609375 2.4609375 0 1 0 -4.921875 0Z" fill="none" stroke="#000000" stroke-linecap="round" stroke-linejoin="round" stroke-width="1.5"></path><path d="M21.795937499999997 21.796875a3.984375 3.984375 0 0 0 -7.03125 0" fill="none" stroke="#000000" stroke-linecap="round" stroke-linejoin="round" stroke-width="1.5"></path><path d="M8.788125 3.1640625a2.4609375 2.4609375 0 1 0 4.921875 0 2.4609375 2.4609375 0 1 0 -4.921875 0Z" fill="none" stroke="#000000" stroke-linecap="round" stroke-linejoin="round" stroke-width="1.5"></path><path d="M14.295 7.734375a4.0021875 4.0021875 0 0 0 -6.09375 0" fill="none" stroke="#000000" stroke-linecap="round" stroke-linejoin="round" stroke-width="1.5"></path><path d="M8.484375 18.4753125a7.759687499999999 7.759687499999999 0 0 0 5.5725 -0.016874999999999998" fill="none" stroke="#000000" stroke-linecap="round" stroke-linejoin="round" stroke-width="1.5"></path><path d="M5.95125 5.625a7.703437500000001 7.703437500000001 0 0 0 -2.4375 5.625c0 0.2371875 0.014062499999999999 0.46875 0.035625 0.703125" fill="none" stroke="#000000" stroke-linecap="round" stroke-linejoin="round" stroke-width="1.5"></path><path d="M18.947812499999998 11.953125c0.020624999999999998 -0.23249999999999998 0.035625 -0.46875 0.035625 -0.703125a7.7006250000000005 7.7006250000000005 0 0 0 -2.4375 -5.625" fill="none" stroke="#000000" stroke-linecap="round" stroke-linejoin="round" stroke-width="1.5"></path></svg>
