<svg xmlns="http://www.w3.org/2000/svg" fill="none" viewBox="0 0 24 24" stroke-width="1.5" height="24" width="24"><path stroke="#000000" stroke-linecap="round" stroke-linejoin="round" d="M10.51 23.25C9.16592 22.562 7.76917 21.9822 6.333 21.516C5.633 21.257 5.748 19.429 6.058 19.088C6.55121 18.5536 6.92597 17.921 7.15775 17.2317C7.38953 16.5423 7.47311 15.8119 7.403 15.088C7.44765 14.6263 7.3967 14.1604 7.25331 13.7193C7.10993 13.2782 6.87719 12.8714 6.56962 12.5243C6.26205 12.1771 5.88625 11.897 5.46565 11.7015C5.04505 11.506 4.58868 11.3993 4.125 11.388C3.66141 11.3994 3.20515 11.5063 2.78467 11.7018C2.36418 11.8974 1.9885 12.1775 1.68104 12.5246C1.37357 12.8718 1.14093 13.2785 0.997603 13.7196C0.85428 14.1606 0.803354 14.6264 0.848 15.088C0.777637 15.8119 0.86109 16.5424 1.09288 17.2318C1.32468 17.9211 1.69958 18.5537 2.193 19.088C2.503 19.429 2.618 21.257 1.918 21.516L0.75 21.947"></path><path stroke="#000000" stroke-linecap="round" stroke-linejoin="round" d="M23.08 14.247C23.1286 14.5233 23.1527 14.8034 23.152 15.084C23.2221 15.8078 23.1386 16.5383 22.9068 17.2277C22.675 17.917 22.3002 18.5496 21.807 19.084C21.497 19.425 21.382 21.253 22.082 21.512L23.25 21.943"></path><path stroke="#000000" stroke-linecap="round" stroke-linejoin="round" d="M13.5 23.244C14.8413 22.5598 16.2342 21.982 17.666 21.516C18.366 21.257 18.252 19.429 17.942 19.088C17.2333 18.3555 16.7895 17.4074 16.681 16.394"></path><path stroke="#000000" stroke-linecap="round" stroke-linejoin="round" d="M21 0.75H21.75C22.1478 0.75 22.5294 0.908035 22.8107 1.18934C23.092 1.47064 23.25 1.85218 23.25 2.25V10.5C23.25 10.8978 23.092 11.2794 22.8107 11.5607C22.5294 11.842 22.1478 12 21.75 12H17.25L12.75 16.5V12H9.75C9.35218 12 8.97064 11.842 8.68934 11.5607C8.40804 11.2794 8.25 10.8978 8.25 10.5V2.25C8.25 1.85218 8.40804 1.47064 8.68934 1.18934C8.97064 0.908035 9.35218 0.75 9.75 0.75H11.25"></path><path stroke="#000000" stroke-linecap="round" stroke-linejoin="round" d="M13.875 3.375C13.875 3.00416 13.985 2.64165 14.191 2.33331C14.397 2.02496 14.6899 1.78464 15.0325 1.64273C15.3751 1.50081 15.7521 1.46368 16.1158 1.53603C16.4795 1.60838 16.8136 1.78695 17.0758 2.04918C17.338 2.3114 17.5166 2.64549 17.589 3.00921C17.6613 3.37292 17.6242 3.74992 17.4823 4.09253C17.3404 4.43514 17.1 4.72798 16.7917 4.93401C16.4834 5.14003 16.1208 5.25 15.75 5.25"></path><path stroke="#000000" d="M15.75 9C15.5429 9 15.375 8.83211 15.375 8.625C15.375 8.41789 15.5429 8.25 15.75 8.25"></path><path stroke="#000000" d="M15.75 9C15.9571 9 16.125 8.83211 16.125 8.625C16.125 8.41789 15.9571 8.25 15.75 8.25"></path></svg>
