<svg width="24" height="24" viewBox="0 0 24 24" fill="none" xmlns="http://www.w3.org/2000/svg">
    <path
        d="M19.585 8.66196C17.789 7.40416 15.6821 6.66387 13.494 6.52187C11.306 6.37988 9.12107 6.84164 7.1776 7.85677C5.23413 8.87189 3.60685 10.4014 2.47336 12.2783C1.33987 14.1552 0.743721 16.3074 0.749988 18.5C0.749988 16.5108 1.54016 14.6032 2.94669 13.1967C4.35321 11.7901 6.26086 11 8.24999 11C9.4132 11.0007 10.5599 11.2751 11.5974 11.8012C12.6349 12.3272 13.534 13.09 14.222 14.028L11.03 17.217C10.9252 17.3219 10.8538 17.4556 10.825 17.6011C10.7961 17.7466 10.8111 17.8973 10.8679 18.0343C10.9247 18.1713 11.0209 18.2884 11.1443 18.3708C11.2676 18.4531 11.4127 18.497 11.561 18.497H21.75C22.1478 18.497 22.5293 18.3389 22.8106 18.0576C23.092 17.7763 23.25 17.3948 23.25 16.997V6.80796C23.2501 6.65963 23.2061 6.51462 23.1238 6.39125C23.0415 6.26788 22.9244 6.1717 22.7874 6.11486C22.6504 6.05803 22.4996 6.04309 22.3541 6.07194C22.2086 6.1008 22.0749 6.17214 21.97 6.27696L19.585 8.66196Z"
        stroke="black" stroke-width="1.5" stroke-linecap="round" stroke-linejoin="round" />
</svg>
