<svg xmlns="http://www.w3.org/2000/svg" fill="none" viewBox="0 0 24 24" height="48" width="48"><path stroke="#000000" stroke-linecap="round" stroke-linejoin="round" stroke-width="1.5" d="M18.75 0.75C19.9435 0.75 21.0881 1.22411 21.932 2.06802C22.7759 2.91193 23.25 4.05653 23.25 5.25C23.25 7.171 20.562 10.827 19.341 12.388C19.2709 12.4778 19.1812 12.5504 19.0788 12.6003C18.9764 12.6503 18.8639 12.6762 18.75 12.6762C18.6361 12.6762 18.5236 12.6503 18.4212 12.6003C18.3188 12.5504 18.2291 12.4778 18.159 12.388C16.938 10.826 14.25 7.171 14.25 5.25C14.25 4.05653 14.7241 2.91193 15.568 2.06802C16.4119 1.22411 17.5565 0.75 18.75 0.75V0.75Z"></path><path stroke="#000000" stroke-linecap="round" stroke-linejoin="round" stroke-width="1.5" d="M0.75 23.25L6.75 8.25"></path><path stroke="#000000" stroke-linecap="round" stroke-linejoin="round" stroke-width="1.5" d="M21.75 23.25L18.75 15.75"></path><path stroke="#000000" stroke-linecap="round" stroke-linejoin="round" stroke-width="1.5" d="M11.25 23.25V21.75"></path><path stroke="#000000" stroke-linecap="round" stroke-linejoin="round" stroke-width="1.5" d="M11.25 17.25V15.75"></path><path stroke="#000000" stroke-linecap="round" stroke-linejoin="round" stroke-width="1.5" d="M11.25 11.25V9.75"></path><path stroke="#000000" stroke-width="1.5" d="M18.75 5.625C18.5429 5.625 18.375 5.45711 18.375 5.25C18.375 5.04289 18.5429 4.875 18.75 4.875"></path><path stroke="#000000" stroke-width="1.5" d="M18.75 5.625C18.9571 5.625 19.125 5.45711 19.125 5.25C19.125 5.04289 18.9571 4.875 18.75 4.875"></path></svg>
