<svg xmlns="http://www.w3.org/2000/svg" fill="none" viewBox="0 0 24 24" id="Workflow-Gantt-Chart-12--Streamline-Ultimate.svg" height="24" width="24"><desc> Workflow Gantt Chart 12 Streamline Icon: https://streamlinehq.com</desc><path stroke="#000000" stroke-linecap="round" stroke-linejoin="round" stroke-miterlimit="10" d="M0.75 7.20654h22.5" stroke-width="1.5"></path><path stroke="#000000" stroke-linecap="round" stroke-linejoin="round" stroke-miterlimit="10" d="M12.4891 4.38041H1.72827c-0.29348 0 -0.48913 -0.19565 -0.48913 -0.48913V1.53259c0 -0.29348 0.19565 -0.48913 0.48913 -0.48913H12.4891c0.2935 0 0.4892 0.19565 0.4892 0.48913v2.35869c0 0.19565 -0.2935 0.48913 -0.4892 0.48913Z" stroke-width="1.5"></path><path stroke="#000000" stroke-linecap="round" stroke-linejoin="round" stroke-miterlimit="10" d="M22.2717 13.6685H11.5109c-0.2935 0 -0.4892 -0.1957 -0.4892 -0.4891v-2.3587c0 -0.2935 0.1957 -0.4892 0.4892 -0.4892h10.7608c0.2935 0 0.4892 0.1957 0.4892 0.4892v2.3587c0 0.1956 -0.2935 0.4891 -0.4892 0.4891Z" stroke-width="1.5"></path><path stroke="#000000" stroke-linecap="round" stroke-linejoin="round" stroke-miterlimit="10" d="M17.625 22.9566H6.86413c-0.29348 0 -0.48913 -0.1957 -0.48913 -0.4892v-2.3586c0 -0.2935 0.19565 -0.4892 0.48913 -0.4892H17.625c0.2935 0 0.4891 0.1957 0.4891 0.4892v2.3586c0 0.1957 -0.2934 0.4892 -0.4891 0.4892Z" stroke-width="1.5"></path><path stroke="#000000" stroke-linecap="round" stroke-linejoin="round" stroke-miterlimit="10" d="M0.75 16.7935h22.5" stroke-width="1.5"></path></svg>
